<?xml version="1.0" encoding="UTF-8"?>
<svg width="36px" height="27px" viewBox="0 0 36 27" version="1.1" xmlns="http://www.w3.org/2000/svg" xmlns:xlink="http://www.w3.org/1999/xlink">
    <!-- Generator: Sketch 43.2 (39069) - http://www.bohemiancoding.com/sketch -->
    <title>0292-users2</title>
    <desc>Created with Sketch.</desc>
    <defs></defs>
    <g id="Marketing-Site" stroke="none" stroke-width="1" fill="none" fill-rule="evenodd">
        <g id="Marketing-Home" transform="translate(-271.000000, -1828.000000)" fill="#4990E2">
            <g id="0292-users2" transform="translate(271.000000, 1828.000000)">
                <g id="Group">
                    <path d="M33.3,26.6549157 L13.5,26.6549157 C12.0114,26.6549157 10.8,25.4589985 10.8,23.9894242 C10.8,23.9041284 10.8198,21.8748008 12.4632,19.8756822 C13.4082,18.7277438 14.697,17.8179227 16.2936,17.1710967 C18.2214,16.3892192 20.6136,15.9947264 23.4,15.9947264 C26.1864,15.9947264 28.5768,16.3909962 30.5064,17.1710967 C32.103,17.8179227 33.3918,18.7277438 34.3368,19.8756822 C35.982,21.8748008 36,23.9041284 36,23.9894242 C36,25.4589985 34.7886,26.6549157 33.3,26.6549157 Z M12.6,23.9947551 C12.6018,24.4834286 13.005,24.8779213 13.5,24.8779213 L33.3,24.8779213 C33.795,24.8779213 34.1982,24.4816516 34.2,23.9947551 C34.1982,23.9325603 34.1424,22.4043452 32.8698,20.9134469 C31.1166,18.8574644 27.8424,17.7717208 23.4,17.7717208 C18.9576,17.7717208 15.6834,18.8592414 13.9302,20.9134469 C12.6576,22.4061222 12.6018,23.9325603 12.6,23.9947551 Z" id="Shape"></path>
                    <path d="M23.4,14.2159551 C19.4292,14.2159551 16.2,11.0280271 16.2,7.10797753 C16.2,3.18792792 19.4292,0 23.4,0 C27.3708,0 30.6,3.18792792 30.6,7.10797753 C30.6,11.0280271 27.3708,14.2159551 23.4,14.2159551 Z M23.4,1.77699438 C20.4228,1.77699438 18,4.16882882 18,7.10797753 C18,10.0471262 20.4228,12.4389607 23.4,12.4389607 C26.3772,12.4389607 28.8,10.0471262 28.8,7.10797753 C28.8,4.16882882 26.3772,1.77699438 23.4,1.77699438 Z" id="Shape"></path>
                    <path d="M8.1,26.6549157 L2.7,26.6549157 C1.2114,26.6549157 0,25.4589985 0,23.9894242 C0,23.9236754 0.0144,22.3421504 1.1934,20.7908343 C1.8738,19.8934521 2.8026,19.1844313 3.9528,18.6797649 C5.328,18.0755869 7.0272,17.7699438 9.0018,17.7699438 C9.324,17.7699438 9.6426,17.7788288 9.9504,17.7948217 C10.4472,17.8214767 10.827,18.2390703 10.8018,18.7295208 C10.7766,19.2199712 10.3518,19.596694 9.855,19.5700391 C9.5796,19.5558232 9.2934,19.5487152 9.0036,19.5487152 C1.9944,19.5487152 1.809,23.7761848 1.8036,23.9965321 C1.8054,24.4834286 2.2086,24.8796983 2.7036,24.8796983 L8.1036,24.8796983 C8.6004,24.8796983 9.0036,25.2777451 9.0036,25.7681955 C9.0036,26.258646 8.6004,26.6566927 8.1036,26.6566927 L8.1,26.6549157 Z" id="Shape"></path>
                    <path d="M9,15.9929494 C6.0228,15.9929494 3.6,13.601115 3.6,10.6619663 C3.6,7.72281758 6.0228,5.33098315 9,5.33098315 C11.9772,5.33098315 14.4,7.72281758 14.4,10.6619663 C14.4,13.601115 11.9772,15.9929494 9,15.9929494 Z M9,7.10797753 C7.0146,7.10797753 5.4,8.70194149 5.4,10.6619663 C5.4,12.6219911 7.0146,14.2159551 9,14.2159551 C10.9854,14.2159551 12.6,12.6219911 12.6,10.6619663 C12.6,8.70194149 10.9854,7.10797753 9,7.10797753 Z" id="Shape"></path>
                </g>
            </g>
        </g>
    </g>
</svg>