<?xml version="1.0" encoding="UTF-8"?>
<svg width="33px" height="33px" viewBox="0 0 33 33" version="1.1" xmlns="http://www.w3.org/2000/svg" xmlns:xlink="http://www.w3.org/1999/xlink">
    <!-- Generator: Sketch 43.2 (39069) - http://www.bohemiancoding.com/sketch -->
    <title>gift</title>
    <desc>Created with Sketch.</desc>
    <defs></defs>
    <g id="Marketing-Site" stroke="none" stroke-width="1" fill="none" fill-rule="evenodd">
        <g id="Marketing-Home" transform="translate(-612.000000, -1295.000000)" fill="#4990E2">
            <g id="gift" transform="translate(612.000000, 1295.000000)">
                <path d="M32.1315789,6.94736842 L26.9193158,6.94736842 C27.4664211,6.22136842 27.7894737,5.31821053 27.7894737,4.34210526 C27.7894737,1.94873684 25.8407368,0 23.4473684,0 C21.0331579,0 19.008,1.91226316 18.0162632,3.05336842 C17.4153158,3.74289474 16.8977368,4.48278947 16.5,5.19836842 C16.1022632,4.48278947 15.5846842,3.74463158 14.9837368,3.05336842 C13.992,1.914 11.9668421,0 9.55263158,0 C7.15926316,0 5.21052632,1.94873684 5.21052632,4.34210526 C5.21052632,5.31821053 5.53531579,6.22136842 6.08068421,6.94736842 L0.868421053,6.94736842 C0.389052632,6.94736842 0,7.33642105 0,7.81578947 L0,13.0263158 C0,13.5056842 0.389052632,13.8947368 0.868421053,13.8947368 L1.73684211,13.8947368 L1.73684211,30.3947368 C1.73684211,31.8311053 2.90573684,33 4.34210526,33 L28.6578947,33 C30.0942632,33 31.2631579,31.8311053 31.2631579,30.3947368 L31.2631579,13.8947368 L32.1315789,13.8947368 C32.6109474,13.8947368 33,13.5056842 33,13.0263158 L33,7.81578947 C33,7.33642105 32.6109474,6.94736842 32.1315789,6.94736842 L32.1315789,6.94736842 Z M19.3258421,4.19273684 C20.6840526,2.63131579 22.1864211,1.73684211 23.4473684,1.73684211 C24.8837368,1.73684211 26.0526316,2.90573684 26.0526316,4.34210526 C26.0526316,5.77847368 24.8837368,6.94736842 23.4473684,6.94736842 L17.5803158,6.94736842 C17.8807895,6.17968421 18.4886842,5.15494737 19.3258421,4.19273684 L19.3258421,4.19273684 Z M19.1052632,31.2631579 L13.8947368,31.2631579 L13.8947368,8.68421053 L19.1052632,8.68421053 L19.1052632,31.2631579 Z M6.94736842,4.34210526 C6.94736842,2.90573684 8.11626316,1.73684211 9.55263158,1.73684211 C10.8135789,1.73684211 12.3159474,2.63131579 13.6741579,4.19273684 C14.5113158,5.15494737 15.1192105,6.17968421 15.4196842,6.94736842 L9.55263158,6.94736842 C8.11626316,6.94736842 6.94736842,5.77847368 6.94736842,4.34210526 Z M1.73684211,8.68421053 L12.1578947,8.68421053 L12.1578947,12.1578947 L1.73684211,12.1578947 L1.73684211,8.68421053 Z M3.47368421,30.3947368 L3.47368421,13.8947368 L12.1578947,13.8947368 L12.1578947,31.2631579 L4.34210526,31.2631579 C3.86273684,31.2631579 3.47368421,30.8741053 3.47368421,30.3947368 Z M29.5263158,30.3947368 C29.5263158,30.8741053 29.1372632,31.2631579 28.6578947,31.2631579 L20.8421053,31.2631579 L20.8421053,13.8947368 L29.5263158,13.8947368 L29.5263158,30.3947368 Z M31.2631579,12.1578947 L20.8421053,12.1578947 L20.8421053,8.68421053 L31.2631579,8.68421053 L31.2631579,12.1578947 Z" id="Shape"></path>
            </g>
        </g>
    </g>
</svg>