<?xml version="1.0" encoding="UTF-8"?>
<svg width="37px" height="49px" viewBox="0 0 37 49" version="1.1" xmlns="http://www.w3.org/2000/svg" xmlns:xlink="http://www.w3.org/1999/xlink">
    <!-- Generator: Sketch 43.2 (39069) - http://www.bohemiancoding.com/sketch -->
    <title>Group 6</title>
    <desc>Created with Sketch.</desc>
    <defs></defs>
    <g id="Marketing-Site" stroke="none" stroke-width="1" fill="none" fill-rule="evenodd">
        <g id="Marketing-Home" transform="translate(-702.000000, -3041.000000)">
            <g id="Group-6" transform="translate(702.000000, 3041.000000)">
                <path d="M12.0185855,2.02370276 C12.0185855,2.02370276 23.6198666,4.17557002 25.6521473,2.02370276 C27.684428,-0.128164497 27.5378826,4.17557002 27.5378826,4.17557002 L22.4316046,13 L13,13 C13,13 10.0349664,7.64010843 9.70150901,5.58848897 C9.36805163,3.5368695 12.0185855,2.02370276 12.0185855,2.02370276 Z" id="Rectangle-7" fill="#FFFFFF"></path>
                <path d="M17.8498182,48 C26.7693173,48 39.509006,43.855481 34,31.5 C28.490994,19.144519 26.7693173,13.0225117 17.8498182,13.0225117 C8.93031913,13.0225117 7.37092462,20.9540449 1.69963646,31.5 C-3.9716517,42.0459551 8.93031913,48 17.8498182,48 Z" id="Oval-4" fill="#FFFFFF"></path>
                <g id="0351-bag-dollar" fill-rule="nonzero">
                    <path d="M23.15625,31.7272727 L14.625,31.7272727 L14.625,29.3181818 L23.15625,29.3181818 C23.829,29.3181818 24.375,28.7785455 24.375,28.1136364 C24.375,27.4487273 23.829,26.9090909 23.15625,26.9090909 L19.5,26.9090909 L19.5,25.7045455 C19.5,25.0396364 18.954,24.5 18.28125,24.5 C17.6085,24.5 17.0625,25.0396364 17.0625,25.7045455 L17.0625,26.9090909 L13.40625,26.9090909 C12.7335,26.9090909 12.1875,27.4487273 12.1875,28.1136364 L12.1875,32.9318182 C12.1875,33.5967273 12.7335,34.1363636 13.40625,34.1363636 L21.9375,34.1363636 L21.9375,36.5454545 L13.40625,36.5454545 C12.7335,36.5454545 12.1875,37.0850909 12.1875,37.75 C12.1875,38.4149091 12.7335,38.9545455 13.40625,38.9545455 L17.0625,38.9545455 L17.0625,40.1590909 C17.0625,40.824 17.6085,41.3636364 18.28125,41.3636364 C18.954,41.3636364 19.5,40.824 19.5,40.1590909 L19.5,38.9545455 L23.15625,38.9545455 C23.829,38.9545455 24.375,38.4149091 24.375,37.75 L24.375,32.9318182 C24.375,32.2669091 23.829,31.7272727 23.15625,31.7272727 Z" id="Shape" fill="#FFBB44"></path>
                    <path d="M33.4741875,24.8276364 C31.7289375,21.9295 29.5108125,19.5035455 27.7265625,17.557 C26.41275,16.1211818 25.062375,14.6468182 24.57975,13.6229545 C25.3865625,13.158 25.935,12.6159545 26.456625,12.1028182 C26.9319375,11.6330455 26.9319375,10.8693636 26.456625,10.3995909 C26.0398125,9.98763636 25.39875,9.93704545 24.925875,10.2454091 C25.467,8.64577273 26.559,6.62454545 28.7649375,4.98877273 C29.235375,4.64186364 29.3865,4.01068182 29.1256875,3.49031818 C29.0623125,3.36263636 27.534,0.385 24.3774375,0.385 C22.4030625,0.385 21.786375,1.61363636 21.4573125,2.27131818 C21.1940625,2.7965 21.1843125,2.81818182 20.7211875,2.81818182 C19.7998125,2.81818182 18.74925,2.29059091 17.6353125,1.73168182 C16.3141875,1.06918182 14.9491875,0.385 13.44525,0.385 L13.3965,0.385 C10.544625,0.413909091 7.9584375,2.89045455 7.67325,3.17231818 C7.4221875,3.42045455 7.2954375,3.76013636 7.3198125,4.10945455 C7.3441875,4.45877273 7.522125,4.77918182 7.804875,4.98877273 C9.598875,6.31859091 10.8785625,8.05313636 11.607375,10.1466364 C11.6195625,10.1803636 11.6293125,10.2116818 11.6415,10.2454091 C11.168625,9.93945455 10.5275625,9.99245455 10.1131875,10.402 C9.637875,10.8717727 9.637875,11.6354545 10.1131875,12.1052273 C10.632375,12.6183636 11.1808125,13.1604091 11.9900625,13.6277727 C11.509875,14.6492273 10.1570625,16.1235909 8.8408125,17.5618182 C7.0565625,19.5107727 4.836,21.9343182 3.0931875,24.8324545 C1.0164375,28.2846818 0.004875,31.7248636 0.004875,35.3457273 C0.004875,40.2747273 1.8451875,43.8642727 5.4721875,46.0155909 C8.4410625,47.7766364 12.514125,48.5957273 18.286125,48.5957273 C24.058125,48.5957273 28.1311875,47.7766364 31.1000625,46.0155909 C34.7270625,43.8642727 36.567375,40.2747273 36.567375,35.3457273 C36.567375,31.7248636 35.55825,28.2846818 33.4790625,24.8324545 L33.4741875,24.8276364 Z M10.427625,4.02513636 C11.2636875,3.42768182 12.3995625,2.80372727 13.4184375,2.79409091 L13.4428125,2.79409091 C14.3641875,2.79409091 15.41475,3.32168182 16.5286875,3.88059091 C17.8498125,4.54309091 19.2148125,5.22727273 20.71875,5.22727273 C22.693125,5.22727273 23.3098125,3.99863636 23.638875,3.34095455 C23.902125,2.81577273 23.911875,2.79409091 24.375,2.79409091 C25.2695625,2.79409091 25.9520625,3.31927273 26.3859375,3.79868182 C23.024625,6.75945455 22.2129375,10.4188636 22.0179375,12.0787273 C21.142875,12.3148182 19.963125,12.4569545 18.28125,12.4569545 C16.599375,12.4569545 15.419625,12.3148182 14.5445625,12.0787273 C14.3544375,10.4598182 13.576875,6.94495455 10.427625,4.02754545 L10.427625,4.02513636 Z M18.28125,46.1818182 C7.176,46.1818182 2.4375,42.9391818 2.4375,35.3409091 C2.4375,28.1329091 7.180875,22.9557727 10.642125,19.1735 C12.324,17.3377727 13.664625,15.8730455 14.26425,14.483 C15.29775,14.7190909 16.599375,14.8636364 18.28125,14.8636364 C19.963125,14.8636364 21.26475,14.7190909 22.29825,14.483 C22.897875,15.8730455 24.2385,17.3377727 25.9179375,19.1735 C29.381625,22.9557727 34.1225625,28.1329091 34.1225625,35.3409091 C34.1225625,42.9391818 29.3840625,46.1818182 18.2788125,46.1818182 L18.28125,46.1818182 Z" id="Shape" fill="#FFFFFF"></path>
                </g>
                <path d="M10.5,11.5 C13.0039132,11.5 15.4960868,13.6374264 18,13.6374264 C20.5039132,13.6374264 23.0039132,11.5 25.5,11.5" id="Line" stroke="#BBBDBF" stroke-width="4" stroke-linecap="round"></path>
            </g>
        </g>
    </g>
</svg>