<?xml version="1.0" encoding="UTF-8"?>
<svg width="62px" height="59px" viewBox="0 0 62 59" version="1.1" xmlns="http://www.w3.org/2000/svg" xmlns:xlink="http://www.w3.org/1999/xlink">
    <!-- Generator: Sketch 43.2 (39069) - http://www.bohemiancoding.com/sketch -->
    <title>Group 4</title>
    <desc>Created with Sketch.</desc>
    <defs></defs>
    <g id="Marketing-Site" stroke="none" stroke-width="1" fill="none" fill-rule="evenodd">
        <g id="Marketing-Home" transform="translate(-369.000000, -3029.000000)">
            <g id="Group-4" transform="translate(370.000000, 3030.000000)">
                <path d="M27.5,56.5 L31.0193067,56.5" id="Line-Copy" stroke="#979797" stroke-width="3" stroke-linecap="round"></path>
                <path d="M25.1944336,52.5 L33.3606462,52.5" id="Line" stroke="#979797" stroke-width="3" stroke-linecap="round"></path>
                <path d="M39.6412291,37.7425488 C38.5137243,39.9548215 36.2147205,42.8094073 35.4253414,45.1825725 C35.2983871,45.5634354 34.7867991,47.9768237 34.3581712,49.1495796 C34.2249321,49.5191297 34.0992348,49.7667534 33.994906,49.786865 L25.1357597,49.786865 C25.0339449,49.7667534 24.9069906,49.5191297 24.7750084,49.1495796 C24.3463806,47.9768237 23.8347925,45.5634354 23.7065813,45.1825725 C22.9172022,42.8094073 20.6194554,39.9548215 19.4919505,37.7425488 C16.2979819,31.4903647 16.4752151,23.113896 24.0069979,19.7690906 C26.7006912,18.5762232 29.8230123,18.5963347 32.6826261,19.0639287 C33.5159993,19.2009388 34.3506294,19.4271939 35.1249248,19.7690906 C42.6567076,23.113896 42.8339408,31.4903647 39.6412291,37.7425488 Z" id="Page-1" stroke="#FFFFFF" fill="#FFFFFF"></path>
                <path d="M30,11.0383727 L30,0.463131022" id="Line" stroke="#FFBB44" stroke-width="2" stroke-linecap="round"></path>
                <path d="M42.8415814,15.6681671 L48.1292023,6.50973915" id="Line-Copy-2" stroke="#FFBB44" stroke-width="2" stroke-linecap="round"></path>
                <path d="M49.0909815,30.4322992 L59.0900689,26.9893373" id="Line-Copy-3" stroke="#FFBB44" stroke-width="2" stroke-linecap="round"></path>
                <path d="M10.2812612,30.4322992 L0.282173725,26.9893373" id="Line-Copy-3" stroke="#FFBB44" stroke-width="2" stroke-linecap="round"></path>
                <path d="M16.1057228,16.8378069 L10.818102,7.67937892" id="Line-Copy-5" stroke="#FFBB44" stroke-width="2" stroke-linecap="round"></path>
            </g>
        </g>
    </g>
</svg>