<?xml version="1.0" encoding="UTF-8"?>
<svg width="27px" height="26px" viewBox="0 0 27 26" version="1.1" xmlns="http://www.w3.org/2000/svg" xmlns:xlink="http://www.w3.org/1999/xlink">
    <!-- Generator: Sketch 43.2 (39069) - http://www.bohemiancoding.com/sketch -->
    <title>0432-desktop</title>
    <desc>Created with Sketch.</desc>
    <defs></defs>
    <g id="Marketing-Site" stroke="none" stroke-width="1" fill="none" fill-rule="evenodd">
        <g id="Marketing-Home" transform="translate(-947.000000, -1557.000000)" fill-rule="nonzero" fill="#4990E2">
            <g id="0432-desktop" transform="translate(947.000000, 1557.000000)">
                <path d="M24.975,0 L2.025,0 C0.90855,0 0,0.920947368 0,2.05263158 L0,19.8421053 C0,20.9737895 0.90855,21.8947368 2.025,21.8947368 L9.03285,21.8947368 L8.1,23.7858947 C7.8867,24.2196842 7.66395,24.5275789 7.54785,24.6548421 C7.25895,24.7328421 7.04565,24.9996842 7.04565,25.3157895 C7.04565,25.6934737 7.34805,26 7.72065,26 L19.278,26 C19.6506,26 19.953,25.6934737 19.953,25.3157895 C19.953,24.9983158 19.7397,24.7314737 19.4508,24.6548421 C19.3347,24.5289474 19.1133,24.2196842 18.89865,23.7858947 L17.9658,21.8947368 L24.97365,21.8947368 C26.0901,21.8947368 26.99865,20.9737895 26.99865,19.8421053 L26.99865,2.05263158 C26.99865,0.920947368 26.0901,0 24.97365,0 L24.975,0 Z M2.025,1.36842105 L24.975,1.36842105 C25.3476,1.36842105 25.65,1.67494737 25.65,2.05263158 L25.65,15.0526316 L1.35,15.0526316 L1.35,2.05263158 C1.35,1.67494737 1.6524,1.36842105 2.025,1.36842105 Z M17.6931,24.3975789 C17.73225,24.4769474 17.77275,24.5549474 17.8146,24.6315789 L9.1881,24.6315789 C9.22995,24.5549474 9.27045,24.4769474 9.3096,24.3975789 L10.54485,21.8947368 L16.46055,21.8947368 L17.6958,24.3975789 L17.6931,24.3975789 Z M24.975,20.5263158 L2.025,20.5263158 C1.6524,20.5263158 1.35,20.2197895 1.35,19.8421053 L1.35,16.4210526 L25.65,16.4210526 L25.65,19.8421053 C25.65,20.2197895 25.3476,20.5263158 24.975,20.5263158 Z" id="Shape"></path>
                <path d="M14.175,19.1578947 L12.825,19.1578947 C12.4524,19.1578947 12.15,18.8513684 12.15,18.4736842 C12.15,18.096 12.4524,17.7894737 12.825,17.7894737 L14.175,17.7894737 C14.5476,17.7894737 14.85,18.096 14.85,18.4736842 C14.85,18.8513684 14.5476,19.1578947 14.175,19.1578947 Z" id="Shape"></path>
            </g>
        </g>
    </g>
</svg>