<?xml version="1.0" encoding="UTF-8"?>
<svg width="26px" height="26px" viewBox="0 0 26 26" version="1.1" xmlns="http://www.w3.org/2000/svg" xmlns:xlink="http://www.w3.org/1999/xlink">
    <!-- Generator: Sketch 43.2 (39069) - http://www.bohemiancoding.com/sketch -->
    <title>0111-key</title>
    <desc>Created with Sketch.</desc>
    <defs></defs>
    <g id="Marketing-Site" stroke="none" stroke-width="1" fill="none" fill-rule="evenodd">
        <g id="Marketing-Home" transform="translate(-616.000000, -2082.000000)" fill-rule="nonzero" fill="#FFFFFF">
            <g id="0111-key" transform="translate(616.000000, 2082.000000)">
                <path d="M19.3035461,0 C15.750229,0 12.868709,2.90171153 12.868709,6.4799275 C12.868709,7.86922395 13.3037039,9.15743354 14.0437102,10.2123657 L0.188218985,24.1649456 C-0.0627396617,24.4176628 -0.0627396617,24.8284902 0.188218985,25.0812074 C0.314341792,25.208214 0.479073622,25.2704213 0.643805451,25.2704213 C0.808537281,25.2704213 0.97326911,25.206918 1.09939192,25.0812074 L2.57425658,23.596008 L4.69260495,25.7292001 C4.81872776,25.8562067 4.98345959,25.918414 5.14819142,25.918414 C5.31292325,25.918414 5.47765508,25.8549107 5.60377788,25.7292001 C5.85473653,25.4764829 5.85473653,25.0656555 5.60377788,24.8129384 L3.48542951,22.6797462 L4.50599467,21.6520297 L6.62434305,23.7852219 C6.75046585,23.9122285 6.91519768,23.9744358 7.07992951,23.9744358 C7.24466134,23.9744358 7.40939317,23.9109325 7.53551598,23.7852219 C7.78647462,23.5325047 7.78647462,23.1216773 7.53551598,22.8689601 L5.41716761,20.735768 L14.8931087,11.1934268 C16.0449445,12.2885345 17.5983142,12.959855 19.307407,12.959855 C22.860724,12.959855 25.742244,10.0581435 25.742244,6.4799275 C25.742244,2.90171153 22.860724,0 19.307407,0 L19.3035461,0 Z M22.9430899,10.1449745 C21.9701425,11.1247395 20.6780273,11.6638695 19.3035461,11.6638695 C17.9290648,11.6638695 16.6356626,11.1247395 15.6640022,10.1449745 C14.6910548,9.16520945 14.1556764,7.86404001 14.1556764,6.4799275 C14.1556764,5.09581498 14.6910548,3.79334956 15.6640022,2.8148805 C16.6369496,1.83511547 17.9290648,1.2959855 19.3035461,1.2959855 C20.6780273,1.2959855 21.9714295,1.83511547 22.9430899,2.8148805 C23.9160373,3.79464554 24.4514157,5.09581498 24.4514157,6.4799275 C24.4514157,7.86404001 23.9160373,9.16650544 22.9430899,10.1449745 L22.9430899,10.1449745 Z" id="Shape"></path>
            </g>
        </g>
    </g>
</svg>