<?xml version="1.0" encoding="UTF-8"?>
<svg width="67px" height="50px" viewBox="0 0 67 50" version="1.1" xmlns="http://www.w3.org/2000/svg" xmlns:xlink="http://www.w3.org/1999/xlink">
    <!-- Generator: Sketch 43.2 (39069) - http://www.bohemiancoding.com/sketch -->
    <title>Group 5</title>
    <desc>Created with Sketch.</desc>
    <defs>
        <polygon id="path-1" points="0 49.3800945 66.8967704 49.3800945 66.8967704 0 0 0"></polygon>
    </defs>
    <g id="Marketing-Site" stroke="none" stroke-width="1" fill="none" fill-rule="evenodd">
        <g id="Marketing-Home" transform="translate(-1009.000000, -3035.000000)">
            <g id="Group-5" transform="translate(1009.000000, 3035.000000)">
                <g id="Page-1">
                    <path d="M33.4502711,49.3801441 L28.6615081,49.3801441 L28.6615081,17.1549 L43.9370119,17.1549 L40.9845452,42.6703961 C40.5418489,46.4945457 37.3020267,49.3801441 33.4502711,49.3801441 Z" id="Fill-1" fill="#BBBDBF"></path>
                    <mask id="mask-2" fill="white">
                        <use xlink:href="#path-1"></use>
                    </mask>
                    <g id="Clip-4"></g>
                    <polygon id="Fill-3" fill="#FEFEFE" mask="url(#mask-2)" points="0 49.3800945 33.977437 49.3800945 33.977437 0 0 0"></polygon>
                    <path d="M47.3737148,34.2618307 C47.3737148,43.7098465 45.8351963,51.368563 43.936863,51.368563 C42.0390259,51.368563 40.5000111,43.7098465 40.5000111,34.2618307 C40.5000111,24.813815 42.0390259,17.1550984 43.936863,17.1550984 C45.8351963,17.1550984 47.3737148,24.813815 47.3737148,34.2618307" id="Fill-5" fill="#808184" mask="url(#mask-2)"></path>
                    <path d="M47.7774519,45.7125024 C47.7774519,55.1605181 46.238437,62.8192346 44.3406,62.8192346 C42.4422667,62.8192346 40.9037481,55.1605181 40.9037481,45.7125024 C40.9037481,36.2644866 42.4422667,28.6057701 44.3406,28.6057701 C46.238437,28.6057701 47.7774519,36.2644866 47.7774519,45.7125024" id="Fill-6" fill="#38454E" mask="url(#mask-2)"></path>
                    <path d="M50.2766015,49.8137031 L47.3737644,49.8137031 L47.3737644,30.2802307 L56.6331644,30.2802307 L54.84352,45.7469787 C54.5750237,48.0650811 52.6111793,49.8137031 50.2766015,49.8137031" id="Fill-7" fill="#BBBDBF" mask="url(#mask-2)"></path>
                    <path d="M58.7165667,40.6496339 C58.7165667,46.3766811 57.7840259,51.0193346 56.6331148,51.0193346 C55.4827,51.0193346 54.549663,46.3766811 54.549663,40.6496339 C54.549663,34.9225866 55.4827,30.2804291 56.6331148,30.2804291 C57.7840259,30.2804291 58.7165667,34.9225866 58.7165667,40.6496339" id="Fill-8" fill="#808184" mask="url(#mask-2)"></path>
                    <path d="M58.9610919,47.5906465 C58.9610919,53.3176937 58.0285511,57.9603472 56.8781363,57.9603472 C55.7272252,57.9603472 54.7946844,53.3176937 54.7946844,47.5906465 C54.7946844,41.8635992 55.7272252,37.2214417 56.8781363,37.2214417 C58.0285511,37.2214417 58.9610919,41.8635992 58.9610919,47.5906465" id="Fill-9" fill="#38454E" mask="url(#mask-2)"></path>
                    <polygon id="Fill-10" fill="#FFBB44" mask="url(#mask-2)" points="4.74111852 7.95734646 28.0218815 7.95734646 28.0218815 6.96522047 4.74111852 6.96522047"></polygon>
                    <polygon id="Fill-11" fill="#FFBB44" mask="url(#mask-2)" points="4.74111852 13.6620709 28.0218815 13.6620709 28.0218815 12.6699449 4.74111852 12.6699449"></polygon>
                    <polygon id="Fill-12" fill="#FFBB44" mask="url(#mask-2)" points="4.74111852 19.3667953 28.0218815 19.3667953 28.0218815 18.3746693 4.74111852 18.3746693"></polygon>
                    <polygon id="Fill-13" fill="#FFBB44" mask="url(#mask-2)" points="4.74111852 30.7762441 28.0218815 30.7762441 28.0218815 29.7841181 4.74111852 29.7841181"></polygon>
                    <polygon id="Fill-14" fill="#FFBB44" mask="url(#mask-2)" points="4.74111852 25.0715197 28.0218815 25.0715197 28.0218815 24.0793937 4.74111852 24.0793937"></polygon>
                    <polygon id="Fill-15" fill="#FFBB44" mask="url(#mask-2)" points="4.74111852 36.4809685 28.0218815 36.4809685 28.0218815 35.4888425 4.74111852 35.4888425"></polygon>
                    <polygon id="Fill-16" fill="#FFBB44" mask="url(#mask-2)" points="4.74111852 42.1856929 28.0218815 42.1856929 28.0218815 41.1935669 4.74111852 41.1935669"></polygon>
                    <path d="M62.9355815,49.3801441 L58.7121,49.3801441 L58.7121,40.047215 L65.3828185,40.047215 C66.5233074,40.047215 67.2533593,41.2610811 66.7178556,42.2675929 L62.9355815,49.3801441 Z" id="Fill-17" fill="#BBBDBF" mask="url(#mask-2)"></path>
                </g>
            </g>
        </g>
    </g>
</svg>