<?xml version="1.0" encoding="utf-8"?>
<!-- Generator: Adobe Illustrator 23.0.2, SVG Export Plug-In . SVG Version: 6.00 Build 0)  -->
<svg version="1.1" id="Layer_1" xmlns="http://www.w3.org/2000/svg" xmlns:xlink="http://www.w3.org/1999/xlink" x="0px" y="0px"
	 viewBox="0 0 1833 798" style="enable-background:new 0 0 1833 798;" xml:space="preserve">
<style type="text/css">
	.st0{fill-rule:evenodd;clip-rule:evenodd;fill:#FFFFFF;}
	.st1{fill:#FFFFFF;}
	.st2{fill-rule:evenodd;clip-rule:evenodd;}
	.st3{fill-rule:evenodd;clip-rule:evenodd;fill:#4D92DF;}
	.st4{fill:#4D92DF;}
</style>
<g>
	<path class="st1" d="M818,269.1h19.3l-19.1,92.4h-23L776,269.1h19.4l11.3,67.4L818,269.1z"/>
	<path class="st1" d="M867.2,269.1v92.4h-20v-92.4H867.2z"/>
	<path class="st1" d="M902,323.6v37.9h-20v-92.4h35.6c11.8,0,17.7,6.3,17.7,18.9v10.7c0,7.6-2.7,12.5-8.1,14.6
		c4.8,1.7,7.1,5.6,7.1,11.7v36.6h-20v-35c0-1.9-0.9-2.9-2.7-2.9H902z M902,282.6v27h10.6c0.8,0,1.4-0.3,1.9-0.9
		c0.5-0.6,0.8-1.2,0.8-2v-21.3c0-0.8-0.3-1.4-0.8-2c-0.5-0.6-1.2-0.9-1.9-0.9H902z"/>
	<path class="st1" d="M942.9,286.1v-17h50v17h-15v75.4h-20v-75.4H942.9z"/>
	<path class="st1" d="M1035,269.1h20v75c0,12.6-5.9,18.9-17.7,18.9h-17.7c-11.8,0-17.7-6.3-17.7-18.9v-75h20v76.7
		c0,0.8,0.3,1.4,0.8,2c0.5,0.6,1.2,0.9,1.9,0.9h7.7c0.8,0,1.4-0.3,1.9-0.9c0.5-0.6,0.8-1.2,0.8-2V269.1z"/>
	<path class="st1" d="M1105.5,267.7c11.8,0,17.7,6.3,17.7,18.9v75h-20v-31h-14.4v31h-20v-75c0-12.6,5.9-18.9,17.7-18.9H1105.5z
		 M1088.7,315.1h14.4v-31c0-0.8-0.3-1.4-0.8-2c-0.5-0.6-1.2-0.9-1.9-0.9h-9c-0.8,0-1.4,0.3-1.9,0.9c-0.5,0.6-0.8,1.2-0.8,2V315.1z"
		/>
	<path class="st1" d="M1158,344.6h21.9v16.9H1138v-92.4h20V344.6z"/>
	<path class="st1" d="M1269.4,293.4h-19v-7.3c0-0.8-0.3-1.4-0.8-2c-0.5-0.6-1.2-0.9-1.9-0.9h-7.9c-0.8,0-1.4,0.3-1.9,0.9
		c-0.5,0.6-0.8,1.2-0.8,2v16.4c0,0.8,0.3,1.4,0.8,2c0.5,0.6,1.2,0.9,1.9,0.9h12.9c11.8,0.2,17.7,6.5,17.7,18.9v19.9
		c0,12.6-5.9,18.9-17.7,18.9h-16.9c-11.8,0-17.7-6.3-17.7-18.9v-9.6h19v10.3c0,0.8,0.3,1.4,0.8,2c0.5,0.6,1.2,0.9,1.9,0.9h8.9
		c0.8,0,1.4-0.3,1.9-0.9c0.5-0.6,0.8-1.2,0.8-2v-18.1c0-0.8-0.3-1.4-0.8-2c-0.5-0.6-1.2-0.9-1.9-0.9h-12.9
		c-11.8,0-17.7-6.3-17.7-18.9v-18.4c0-12.6,5.9-18.9,17.7-18.9h15.9c11.8,0,17.7,6.3,17.7,18.9V293.4z"/>
	<path class="st1" d="M1316.6,269.1h20v75c0,12.6-5.9,18.9-17.7,18.9h-17.7c-11.8,0-17.7-6.3-17.7-18.9v-75h20v76.7
		c0,0.8,0.3,1.4,0.8,2c0.5,0.6,1.2,0.9,1.9,0.9h7.7c0.8,0,1.4-0.3,1.9-0.9c0.5-0.6,0.8-1.2,0.8-2V269.1z"/>
	<path class="st1" d="M1370.2,361.5h-20v-75c0-12.6,5.9-18.9,17.7-18.9h10.6c7,0,11.9,2.3,14.9,6.9c2.8-4.6,7.7-6.9,14.9-6.9h10.6
		c11.8,0,17.7,6.3,17.7,18.9v75h-20v-76.7c0-0.8-0.3-1.4-0.8-2c-0.5-0.6-1.2-0.9-1.9-0.9h-7.7c-0.8,0-1.4,0.3-1.9,0.9
		c-0.5,0.6-0.8,1.2-0.8,2v76.7h-20v-76.7c0-0.8-0.3-1.4-0.8-2c-0.5-0.6-1.2-0.9-1.9-0.9h-7.7c-0.8,0-1.4,0.3-1.9,0.9
		c-0.5,0.6-0.8,1.2-0.8,2V361.5z"/>
	<path class="st1" d="M1470,361.5h-20v-75c0-12.6,5.9-18.9,17.7-18.9h10.6c7,0,11.9,2.3,14.9,6.9c2.8-4.6,7.7-6.9,14.9-6.9h10.6
		c11.8,0,17.7,6.3,17.7,18.9v75h-20v-76.7c0-0.8-0.3-1.4-0.8-2c-0.5-0.6-1.2-0.9-1.9-0.9h-7.7c-0.8,0-1.4,0.3-1.9,0.9
		c-0.5,0.6-0.8,1.2-0.8,2v76.7h-20v-76.7c0-0.8-0.3-1.4-0.8-2c-0.5-0.6-1.2-0.9-1.9-0.9h-7.7c-0.8,0-1.4,0.3-1.9,0.9
		c-0.5,0.6-0.8,1.2-0.8,2V361.5z"/>
	<path class="st1" d="M1570,269.1v92.4h-20v-92.4H1570z"/>
	<path class="st1" d="M1579.6,286.1v-17h50v17h-15v75.4h-20v-75.4H1579.6z"/>
	<path class="st1" d="M1690,293.4h-19v-7.3c0-0.8-0.3-1.4-0.8-2c-0.5-0.6-1.2-0.9-1.9-0.9h-7.9c-0.8,0-1.4,0.3-1.9,0.9
		c-0.5,0.6-0.8,1.2-0.8,2v16.4c0,0.8,0.3,1.4,0.8,2c0.5,0.6,1.2,0.9,1.9,0.9h12.9c11.8,0.2,17.7,6.5,17.7,18.9v19.9
		c0,12.6-5.9,18.9-17.7,18.9h-16.9c-11.8,0-17.7-6.3-17.7-18.9v-9.6h19v10.3c0,0.8,0.3,1.4,0.8,2c0.5,0.6,1.2,0.9,1.9,0.9h8.9
		c0.8,0,1.4-0.3,1.9-0.9c0.5-0.6,0.8-1.2,0.8-2v-18.1c0-0.8-0.3-1.4-0.8-2c-0.5-0.6-1.2-0.9-1.9-0.9h-12.9
		c-11.8,0-17.7-6.3-17.7-18.9v-18.4c0-12.6,5.9-18.9,17.7-18.9h15.9c11.8,0,17.7,6.3,17.7,18.9V293.4z"/>
</g>
<g>
	<path class="st1" d="M861.2,437.2h-33.5v-12.8c0-1.3-0.5-2.5-1.4-3.5c-0.9-1-2.1-1.5-3.4-1.5h-13.8c-1.3,0-2.5,0.5-3.4,1.5
		c-0.9,1-1.4,2.2-1.4,3.5v29c0,1.3,0.5,2.5,1.4,3.5c0.9,1,2.1,1.5,3.4,1.5h22.7c20.8,0.3,31.2,11.4,31.2,33.2v35
		c0,22.2-10.4,33.2-31.2,33.2h-29.7c-20.8,0-31.2-11.1-31.2-33.2v-16.9h33.5v18.1c0,1.3,0.5,2.5,1.4,3.5c0.9,1,2.1,1.5,3.4,1.5h15.6
		c1.3,0,2.5-0.5,3.4-1.5c0.9-1,1.4-2.2,1.4-3.5v-32c0-1.3-0.5-2.5-1.4-3.5c-0.9-1-2.1-1.5-3.4-1.5h-22.7
		c-20.8,0-31.2-11.1-31.2-33.2v-32.5c0-22.2,10.4-33.2,31.2-33.2H830c20.8,0,31.2,11.1,31.2,33.2V437.2z"/>
	<path class="st1" d="M982.1,425.2v101.5c0,22.2-10.4,33.2-31.2,33.2h-33.5c-20.8,0-31.2-11.1-31.2-33.2V425.2
		c0-22.2,10.4-33.2,31.2-33.2h33.5C971.7,391.9,982.1,403,982.1,425.2z M946.8,530.6V420.9c0-1.3-0.5-2.5-1.4-3.5
		c-0.9-1-2.1-1.5-3.4-1.5h-15.9c-1.3,0-2.5,0.5-3.4,1.5c-0.9,1-1.4,2.2-1.4,3.5v109.8c0,1.3,0.5,2.5,1.4,3.5c0.9,1,2.1,1.5,3.4,1.5
		h15.9c1.3,0,2.5-0.5,3.4-1.5C946.4,533.1,946.8,532,946.8,530.6z"/>
	<path class="st1" d="M1043.2,493.4v63.9H1008V394.4h73.5v30.5h-38.3v39h35.7v29.5H1043.2z"/>
	<path class="st1" d="M1092.8,424.4v-30h88.1v30h-26.4v132.9h-35.2V424.4H1092.8z"/>
	<path class="st1" d="M1257.2,394.4h31.2l18.9,122.6l14.1-122.6h34.2l-26.4,162.9h-40l-16.4-99.9l-16.4,99.9h-40L1190,394.4h34.2
		l14.1,122.6L1257.2,394.4z"/>
	<path class="st1" d="M1439.7,391.9c20.8,0,31.2,11.1,31.2,33.2v132.2h-35.2v-54.6h-25.4v54.6H1375V425.2
		c0-22.2,10.4-33.2,31.2-33.2H1439.7z M1410.3,475.5h25.4v-54.6c0-1.3-0.5-2.5-1.4-3.5c-0.9-1-2.1-1.5-3.4-1.5h-15.9
		c-1.3,0-2.5,0.5-3.4,1.5c-0.9,1-1.4,2.2-1.4,3.5V475.5z"/>
	<path class="st1" d="M1532.4,490.6v66.7h-35.2V394.4h62.7c20.8,0,31.2,11.1,31.2,33.2v18.9c0,13.4-4.8,22-14.3,25.7
		c8.4,3,12.6,9.9,12.6,20.6v64.4H1554v-61.7c0-3.4-1.6-5-4.8-5H1532.4z M1532.4,418.4v47.6h18.6c1.3,0,2.5-0.5,3.4-1.5
		c0.9-1,1.4-2.2,1.4-3.5v-37.5c0-1.3-0.5-2.5-1.4-3.5c-0.9-1-2.1-1.5-3.4-1.5H1532.4z"/>
	<path class="st1" d="M1648.9,528.1h39v29.2h-74.3V394.4h74.3v28.7h-39v38.3h36.5v27.7h-36.5V528.1z"/>
</g>
<g>
	<g>
		<path class="st0" d="M264.1,647.9c64.5-16.4,94.8-70.8,107.4-93.5c3.5-6.3,5.8-10.5,8.1-11.9l0.8-0.5l1-0.2
			c34.7-6.4,84.9-4.1,134.5-1.8c51.7,2.4,102.7,4.7,133.3-3c47-11.8,50-72.7,53.7-147.5c1-19.9,2-40.8,4-62.2
			c2.3-25.7,4.5-53.4,6.7-81c1.2-15,2.4-29.9,3.5-44c7.2-87.2,1.1-111.3-64.2-116.7c-26.8-2.2-62.9-1.5-111.2-0.7
			c-32.1,0.6-69.6,1.3-113.4,1.3c-24.9,0-53.7-0.7-83.9-1.5c-66.9-1.7-140.6-3.5-192,2.1c-55.9,6-56.1,63.6-49.1,128.6
			c1,9.3,2.3,19.7,3.6,30.1c1.7,13.9,3.4,27.9,4.8,42.3c2.6,28.3,4.7,54.4,6.8,80.4c1.2,15,2.4,30,3.7,45.5
			c0.7,7.9,1.1,16.5,1.5,25.2c1.6,33.9,3.2,68,24.1,86c19.6,16.9,43.4,15.1,67.9,13.2c16.5-1.2,33.2-2.5,49.9,1.5
			c22.6,5.4,23.2,29.2,17.1,54.8c-4,17-11.1,34.8-16.2,47.8L264.1,647.9L264.1,647.9z M380,559.1C366.2,584,332.2,645,257.3,659.4
			l-8,1.5l2.5-7.8c1.2-3.6,3.1-8.5,5.4-14.4c5-12.7,11.9-30.1,15.8-46.5c4.9-20.6,5.2-39.5-9.9-43.1c-15.2-3.6-31.2-2.4-46.9-1.2
			c-26.5,2-52.2,3.9-74.9-15.6c-24.1-20.7-25.8-57-27.5-92.9v0c-0.4-8.2-0.8-16.4-1.5-24.8c-1.3-14.9-2.5-30.2-3.7-45.6
			c-2.1-27-4.3-54.2-6.7-80.3c-1.2-13.2-3-27.6-4.8-42c-1.2-9.9-2.4-19.7-3.6-30.3c-7.6-70.2-6.8-132.4,57.8-139.4
			c51.9-5.6,126-3.8,193.3-2.1c30.2,0.7,59,1.5,83.7,1.5c43.6,0,81.1-0.7,113.2-1.3c48.7-0.9,85.2-1.6,112.1,0.7
			c74,6.1,81,32.4,73.2,127.2c-1.2,15.1-2.4,29.5-3.6,44c-2.1,26.2-4.2,52.6-6.7,81.1c-1.9,21-2.9,41.9-3.9,61.8
			c-3.9,78.8-7.1,143-61.1,156.5c-31.9,8-83.7,5.6-136.1,3.3c-48.3-2.2-97.3-4.4-130.9,1.4C383.9,552.1,382.2,555.1,380,559.1z"/>
	</g>
</g>
<g>
	<path class="st0" d="M540.1,329.7c-16.9-1.6-30.8,11.1-31.9,27c-1.2,16.5,11,30.3,27.6,31.4c16.2,1.1,30.4-11.7,30.9-28.3
		C567.1,344.4,555.9,331.1,540.1,329.7z"/>
	<path class="st0" d="M414.8,417.8c-13.2-0.1-24,10.5-24,23.7c0,13.2,10.6,23.9,23.8,23.9c13.1,0,23.8-10.5,23.9-23.6
		C438.5,428.6,428,417.9,414.8,417.8z"/>
	<path class="st0" d="M464.5,117c-80,0-201.6-7.5-276.5,0.6c-81.5,8.8-53.6,115.4-45.1,206.4c4,42.8,6.9,84.1,10.4,125.9
		c3.5,42-0.7,90.5,27.3,114.5c34.6,29.7,78.7,6,119.8,15.8c38.6,9.2-1.2,89.5-7.8,110.2c89.5-17.2,119.1-103.8,125.8-108.1
		c70.2-12.9,207.3,10.4,268.1-4.9c63.6-15.9,52-110.9,61.3-213.9c3.8-41.9,6.9-83.8,10.3-125C770.6,89,745.1,117,464.5,117z
		 M340.2,345.4c-3.1,2.5-6.2,5-9.4,7.4c-4.7,3.7-9.3,3.4-13.5-0.8c-4.7-4.6-9.4-9.3-14-14c-4.2-4.2-4.5-8.9-0.9-13.6
		c2.5-3.1,4.9-6.3,7.5-9.4c0.7-0.8,0.7-1.4,0.3-2.4c-2.2-5-4.3-10-6.3-15c-0.4-1-0.9-1.4-1.9-1.5c-4.3-0.4-8.7-0.9-13-1.5
		c-3.3-0.5-5.6-2.3-7-5.4c-0.3-0.6-0.5-1.2-0.8-1.8c0-8.5,0-16.9,0-25.4c1.5-4.8,4.9-7.2,10-7.5c3.4-0.2,6.7-0.7,10.1-1.1
		c1-0.1,1.4-0.5,1.8-1.5c2.1-5.5,4.2-11,6.5-16.5c0.4-1.1,0.4-1.7-0.3-2.5c-2.3-2.9-4.6-5.8-6.9-8.7c-3.6-4.6-3.4-9.3,0.8-13.5
		c4.7-4.7,9.4-9.4,14.1-14.1c4.1-4.1,8.8-4.4,13.3-0.8c2.9,2.2,5.7,4.5,8.6,6.7c0.4,0.3,1.4,0.4,1.8,0.2c5.9-3.3,12-5.9,18.5-7.8
		c0.5-0.1,1-0.8,1.1-1.3c0.5-3.4,0.9-6.8,1.2-10.3c0.6-5.9,4.1-9.2,10-9.2c6.8,0,13.7,0,20.5,0c5.1,0,8.7,3,9.4,8
		c0.6,3.7,1,7.4,1.4,11.2c0.1,1,0.4,1.4,1.4,1.8c5.9,2.4,11.8,4.9,17.7,7.3c0.6,0.2,1.5,0.2,2-0.2c2.8-2.1,5.5-4.3,8.3-6.5
		c4.3-3.3,8.9-3.2,12.8,0.6c5.1,4.9,10.1,9.9,15,15c3.6,3.7,3.7,8.4,0.5,12.5c-2.2,2.9-4.5,5.7-6.8,8.5c-0.7,0.8-0.6,1.3-0.2,2.2
		c2.3,5.5,4.6,11,6.7,16.6c0.4,1,0.8,1.3,1.8,1.4c4,0.4,7.9,0.8,11.9,1.4c4.4,0.7,7.4,4,7.5,8.5c0.2,7.6,0.1,15.1,0,22.7
		c-0.1,4.3-3.2,7.8-7.6,8.5c-3.9,0.6-7.9,1-11.9,1.4c-1,0.1-1.5,0.5-1.9,1.5c-2.2,5.5-4.5,11-6.9,16.5c-0.4,1-0.6,1.6,0.2,2.6
		c2.4,2.9,4.7,5.9,6.9,8.8c3.6,4.7,3.4,9.3-0.8,13.5c-4.7,4.8-9.5,9.5-14.2,14.2c-3.9,3.9-8.6,4.2-13,0.8c-3.1-2.4-6.2-4.8-9.2-7.3
		c-0.8-0.7-1.4-0.7-2.4-0.3c-5.5,2.3-11,4.6-16.6,6.7c-1.2,0.5-1.8,1-1.9,2.3c-0.3,4-0.9,7.9-1.3,11.9c-0.6,4.9-4.3,8.3-9.2,8.3
		c-7.2,0-14.4,0-21.6,0c-4.7,0-8.5-3.2-9.1-7.9c-0.6-4.3-1.1-8.6-1.5-13c-0.1-1.1-0.6-1.6-1.6-2c-5.2-2.1-10.5-4.3-15.6-6.6
		C341.5,344.7,341,344.8,340.2,345.4z M481.2,446.9c-0.1,5-3.2,8.5-8.3,9.2c-1.3,0.2-2.6,0.4-4,0.4c-1.5,0-2.1,0.7-2.6,2.1
		c-1.2,3.3-2.7,6.4-4.2,9.6c-0.5,1-0.5,1.6,0.2,2.4c1.1,1.3,2.1,2.7,3.1,4c2.6,3.7,2.5,8.2-0.6,11.5c-2.4,2.6-4.9,5-7.5,7.3
		c-2.8,2.5-7,2.8-10.3,0.7c-1.8-1.2-3.4-2.7-5.2-3.9c-0.5-0.3-1.4-0.5-2-0.3c-3.7,1.3-7.3,2.8-10.9,4.3c-0.5,0.2-1.1,0.9-1.2,1.5
		c-0.4,1.9-0.5,3.8-0.8,5.7c-0.7,4.4-4.4,7.5-8.9,7.5c-3,0-5.9,0-8.9-0.1c-5.2-0.1-8.8-3.3-9.4-8.5c-0.3-2.2,0.2-4.8-0.9-6.3
		c-1-1.4-3.7-1.7-5.6-2.5c-1.7-0.7-3.3-1.5-4.9-2.4c-1-0.6-1.7-0.5-2.5,0.2c-1.4,1.2-2.8,2.3-4.3,3.3c-3.9,2.7-8.3,2.5-11.8-0.8
		c-2.3-2.2-4.5-4.4-6.6-6.7c-3.1-3.4-3.4-7.8-0.7-11.6c1.1-1.6,2.4-3.1,3.6-4.5c0.7-0.8,0.8-1.4,0.3-2.4c-1.4-3-2.6-6.1-3.8-9.2
		c-0.4-1-0.9-1.4-1.9-1.5c-1.7-0.2-3.5-0.4-5.2-0.7c-4.7-0.7-7.9-4.1-8-8.9c-0.1-3.3,0-6.7,0.2-10c0.3-4.5,3.7-8,8.3-8.4
		c1-0.1,2.1-0.4,3.1-0.3c2.4,0.2,3.4-0.9,4-3.2c0.8-2.8,2.1-5.5,3.4-8.2c0.7-1.3,0.6-2.1-0.3-3.2c-1-1.2-2-2.4-2.9-3.7
		c-2.6-3.8-2.3-8.2,0.8-11.5c2.4-2.5,4.8-5,7.4-7.2c1.6-1.2,3.7-1.8,5.6-2.6c0.1,0.2,0.1,0.3,0.2,0.5c2.6-0.2,4.8,1,6.5,2.7
		c2.4,2.4,4.4,3,7.5,1c2.5-1.6,5.7-2.2,8.6-3.4c0.6-0.2,1.2-0.9,1.3-1.5c0.4-1.5,0.5-3,0.7-4.5c0.7-4.6,4.4-7.8,9-7.8
		c3.1,0,6.2,0,9.3,0.1c4.7,0,8.4,3.4,9,8.1c0.2,1.4,0.3,2.9,0.4,4.3c0,1,0.4,1.4,1.4,1.8c3.6,1.5,7.2,3,10.8,4.7
		c1,0.5,1.6,0.4,2.4-0.2c1.1-0.9,2.3-1.8,3.5-2.6c3.9-2.7,8.3-2.4,11.7,0.9c2.3,2.3,4.6,4.6,6.8,7.1c2.7,3,3,7.1,0.8,10.6
		c-1,1.6-2.2,3-3.4,4.4c-0.8,0.8-0.6,1.5-0.2,2.4c1.4,3.3,2.7,6.7,3.9,10.1c0.4,1,0.9,1.4,1.9,1.5c2,0.2,4,0.4,5.9,1
		c4,1.2,6.4,4.5,6.4,8.7C481.3,441,481.2,444,481.2,446.9z M619.5,362c-1.3,4.7-4.5,7.2-9.4,7.8c-1.9,0.2-3.8,0.9-5.7,1.2
		c-1,0.2-1.4,0.6-1.6,1.6c-1.4,4.5-2.8,9.1-4.4,13.6c-0.4,1-0.3,1.6,0.5,2.4c1.9,1.9,3.8,3.9,5.6,5.9c3.2,3.5,3.4,8.2,0.5,11.9
		c-3.2,4-6.5,7.8-9.8,11.6c-3,3.4-7.6,4.1-11.5,1.8c-2.5-1.5-5-3.2-7.4-4.9c-0.8-0.6-1.4-0.6-2.2-0.1c-4.3,2.3-8.7,4.5-13.1,6.6
		c-0.9,0.4-1.3,0.8-1.3,1.9c0,2.8-0.1,5.7-0.3,8.5c-0.3,4.9-3.5,8.4-8.4,8.9c-4.9,0.5-9.9,0.9-14.8,1.3c-4.7,0.3-8.4-2.5-9.6-7.1
		c-0.7-2.9-1.3-5.8-1.8-8.7c-0.2-1.2-0.7-1.7-1.8-2c-4.3-1.3-8.5-2.7-12.7-4c-0.6-0.2-1.5,0-2,0.4c-2.2,1.9-4.2,4-6.4,5.9
		c-3.8,3.4-8.4,3.6-12.3,0.4c-3.9-3.2-7.7-6.4-11.5-9.7c-3.3-2.9-4-7.7-1.6-11.6c1.6-2.6,3.3-5.1,5-7.5c0.6-0.9,0.6-1.5,0.1-2.4
		c-2.1-3.7-4-7.4-5.9-11.2c-0.5-1-1-1.5-2.1-1.5c-2.9,0-5.8-0.1-8.7-0.3c-4.6-0.2-8-3.1-8.6-7.6c-0.7-5.4-1.1-10.8-1.4-16.3
		c-0.2-4.4,2.8-8,7.2-9c2.6-0.6,5.3-1.1,8-1.6c1-0.2,1.5-0.6,1.8-1.6c1.3-4.6,2.7-9.1,4-13.7c0.2-0.6,0-1.5-0.4-2
		c-1.8-2.1-3.8-4.1-5.7-6.1c-3.1-3.3-3.5-7.9-0.8-11.4c3.4-4.4,7-8.7,10.7-12.8c2.6-3,7.4-3.4,10.8-1.3c2.4,1.5,4.7,3,7,4.6
		c0.8,0.5,1.3,0.4,2.1,0c4.6-2.5,9.1-4.9,13.8-7.2c0.9-0.5,1.4-0.9,1.4-2c0-2.5,0.1-5,0.2-7.4c0.2-4.7,3.5-8.3,8.1-8.7
		c4.8-0.5,9.6-0.9,14.5-1.2c5.7-0.3,9.3,2.5,10.5,8.1c0.5,2.1,0.9,4.3,1.3,6.4c0.2,0.9,0.5,1.4,1.5,1.7c4.9,1.5,9.7,3.1,14.6,4.7
		c0.5,0.2,1.4,0,1.8-0.3c1.8-1.5,3.5-3.2,5.2-4.8c3.7-3.4,8.5-3.7,12.4-0.6c3.9,3.2,7.7,6.4,11.5,9.7c3.5,3.1,4.1,7.7,1.6,11.7
		c-1.4,2.2-2.8,4.4-4.3,6.5c-0.6,0.8-0.5,1.4-0.1,2.3c2.2,4.2,4.3,8.3,6.4,12.6c0.5,1,1,1.3,2,1.3c2.6,0,5.2,0.1,7.8,0.3
		c4.3,0.2,7.8,3.3,8.4,7.6c0.5,4,0.8,8.1,1.1,12.1c0.1,0.6,0.2,1.2,0.3,1.8C619.5,359.3,619.5,360.7,619.5,362z"/>
	<path class="st0" d="M417.7,274.1c0.1-20-15.8-36.2-35.7-36.2c-20.1,0-35.4,16.1-35.9,34.3c-0.6,22.4,17.8,37.7,35.6,37.2
		C400.5,309.9,417.6,294.2,417.7,274.1z"/>
</g>
<g>
	<path class="st1" d="M453.5,653.8c0,0.3-0.1,0.5-0.3,0.7c-0.2,0.2-0.4,0.3-0.7,0.3h-2.6c-0.3,0-0.5-0.1-0.7-0.3
		c-0.2-0.2-0.3-0.4-0.3-0.7l0.1-18.2c0-0.5-0.3-0.8-0.8-0.8H426c-0.5,0-0.8,0.3-0.8,0.8l0.1,18.2c0,0.3-0.1,0.5-0.3,0.7
		c-0.2,0.2-0.4,0.3-0.7,0.3h-2.6c-0.3,0-0.5-0.1-0.7-0.3c-0.2-0.2-0.3-0.4-0.3-0.7l0.3-39.4c0-0.3,0.1-0.5,0.3-0.7
		c0.2-0.2,0.4-0.3,0.7-0.3h2.2c0.3,0,0.5,0.1,0.7,0.3c0.2,0.2,0.3,0.4,0.3,0.7l0.1,15.5c0,0.2,0.1,0.4,0.2,0.5
		c0.1,0.2,0.3,0.2,0.6,0.2h22.3c0.2,0,0.4-0.1,0.6-0.2c0.2-0.1,0.2-0.3,0.2-0.6l0.1-15.5c0-0.3,0.1-0.5,0.3-0.7
		c0.2-0.2,0.4-0.3,0.7-0.3h2.2c0.3,0,0.5,0.1,0.7,0.3c0.2,0.2,0.2,0.4,0.2,0.7L453.5,653.8z"/>
	<path class="st1" d="M472.8,655.3c-2.1,0-4.1-0.4-5.9-1.2c-1.8-0.8-3.3-1.9-4.6-3.4c-1.3-1.4-2.3-3.1-3-5c-0.7-1.9-1.1-3.9-1.1-6
		c0-2.1,0.4-4,1.1-5.9s1.7-3.5,3-4.9s2.8-2.5,4.6-3.4c1.8-0.8,3.7-1.3,5.9-1.3c2.1,0,4.1,0.4,5.8,1.3c1.8,0.8,3.3,2,4.6,3.4
		s2.3,3.1,3,4.9c0.7,1.9,1.1,3.8,1.1,5.9c0,2.1-0.4,4.1-1.1,6c-0.7,1.9-1.7,3.5-3,5c-1.3,1.4-2.8,2.5-4.6,3.4
		C476.8,654.9,474.9,655.3,472.8,655.3z M482.9,639.8c0-1.5-0.2-2.9-0.7-4.3c-0.5-1.4-1.2-2.6-2.1-3.7c-0.9-1.1-2-2-3.2-2.6
		c-1.2-0.7-2.6-1-4.1-1c-1.6,0-3,0.3-4.2,1c-1.3,0.6-2.3,1.5-3.2,2.6c-0.9,1.1-1.6,2.3-2,3.7c-0.5,1.4-0.7,2.8-0.7,4.2
		c0,1.7,0.3,3.3,0.8,4.7c0.5,1.4,1.3,2.6,2.2,3.7c0.9,1,2,1.8,3.2,2.3c1.2,0.5,2.6,0.8,4,0.8c1.4,0,2.6-0.3,3.9-0.8
		c1.2-0.5,2.3-1.3,3.2-2.3c0.9-1,1.7-2.2,2.2-3.6C482.6,643.1,482.9,641.5,482.9,639.8z"/>
	<path class="st1" d="M492.9,632.6c0-1.4,0.3-2.6,0.8-3.6c0.6-1,1.3-1.9,2.2-2.6c0.9-0.7,2-1.2,3.3-1.6c1.2-0.3,2.5-0.5,3.9-0.6
		c1.3,0,2.5,0.1,3.5,0.4c1.1,0.3,2,0.6,2.8,1.1c0.8,0.4,1.5,0.9,2.1,1.5c0.6,0.6,1.1,1.1,1.5,1.7c0.4,0.5,0.7,1.1,0.9,1.5
		c0.2,0.5,0.3,0.9,0.4,1.1c0.1,0.4,0,0.7-0.2,0.8c-0.2,0.1-0.4,0.2-0.7,0.2h-2.4c-0.2,0-0.4,0-0.5-0.1s-0.2-0.2-0.3-0.4
		c-0.2-0.4-0.5-0.9-0.8-1.3c-0.3-0.5-0.7-0.9-1.2-1.3c-0.5-0.4-1.1-0.7-1.9-1c-0.8-0.3-1.7-0.4-2.8-0.4c-0.9,0-1.8,0.1-2.5,0.3
		c-0.8,0.2-1.4,0.5-2,0.8c-0.5,0.4-1,0.8-1.3,1.3c-0.3,0.5-0.5,1.1-0.5,1.7c0,0.9,0.3,1.6,0.8,2.2c0.5,0.6,1.2,1,2.1,1.4
		c0.8,0.4,1.8,0.7,2.9,1c1.1,0.3,2.2,0.6,3.3,0.9s2.2,0.7,3.3,1.1c1.1,0.4,2.1,0.9,2.9,1.6s1.5,1.4,2.1,2.4c0.5,0.9,0.8,2.1,0.8,3.5
		c0,1.5-0.3,2.7-0.9,3.9c-0.6,1.1-1.4,2.1-2.4,2.8c-1,0.8-2.2,1.3-3.5,1.7s-2.8,0.6-4.4,0.6c-1.7,0-3.3-0.2-4.8-0.7
		c-1.4-0.5-2.7-1.1-3.8-1.9c-1.1-0.8-2-1.7-2.7-2.7c-0.7-1-1.2-2.1-1.6-3.1c-0.1-0.4-0.1-0.7-0.1-0.8c0.1-0.2,0.3-0.2,0.8-0.2h2.8
		c0.2,0,0.4,0.1,0.5,0.2c0.1,0.1,0.2,0.3,0.3,0.4c0.2,0.4,0.5,0.8,0.9,1.4c0.4,0.5,0.9,1,1.5,1.5s1.4,0.9,2.3,1.2
		c0.9,0.3,2,0.5,3.3,0.5c1,0,1.9-0.1,2.8-0.3c0.9-0.2,1.7-0.5,2.3-0.9c0.7-0.4,1.2-0.9,1.6-1.5c0.4-0.6,0.6-1.2,0.6-2
		c0-0.8-0.3-1.6-0.8-2.1c-0.5-0.6-1.2-1-2.1-1.4c-0.8-0.4-1.8-0.7-2.9-1c-1.1-0.3-2.2-0.6-3.3-0.9s-2.2-0.7-3.3-1.1
		c-1.1-0.4-2.1-0.9-2.9-1.6c-0.8-0.6-1.5-1.4-2.1-2.3C493.2,635,492.9,633.9,492.9,632.6z"/>
	<path class="st1" d="M533.2,627.4c0,0.2-0.1,0.5-0.3,0.6c-0.2,0.2-0.4,0.3-0.6,0.3h-3.8c-0.2,0-0.3,0.1-0.4,0.2s-0.2,0.2-0.2,0.4
		l0.2,25c0,0.3-0.1,0.5-0.3,0.7c-0.2,0.2-0.4,0.3-0.7,0.3h-2.5c-0.2,0-0.5-0.1-0.7-0.3c-0.2-0.2-0.3-0.4-0.3-0.7l0.2-24.9
		c0-0.2-0.1-0.3-0.2-0.4s-0.2-0.2-0.4-0.2h-3.2c-0.3,0-0.5-0.1-0.7-0.3c-0.2-0.2-0.3-0.4-0.3-0.7l0-1.6c0-0.3,0.1-0.5,0.3-0.6
		c0.2-0.2,0.4-0.2,0.6-0.2h3.2c0.2,0,0.3-0.1,0.4-0.2c0.1-0.1,0.2-0.3,0.2-0.4l0.1-9.9c0-0.3,0.1-0.5,0.3-0.7
		c0.2-0.2,0.4-0.3,0.7-0.3h2c0.3,0,0.5,0.1,0.7,0.3c0.2,0.2,0.3,0.4,0.3,0.7l0.1,9.9c0,0.2,0.1,0.3,0.2,0.4c0.1,0.1,0.3,0.2,0.4,0.2
		h3.7c0.3,0,0.5,0.1,0.7,0.3c0.2,0.2,0.3,0.4,0.3,0.6L533.2,627.4z"/>
	<path class="st1" d="M542.4,653.8c0,0.3-0.1,0.5-0.3,0.7c-0.2,0.2-0.4,0.3-0.7,0.3H539c-0.2,0-0.5-0.1-0.7-0.3
		c-0.2-0.2-0.3-0.4-0.3-0.7l0.2-28c0-0.3,0.1-0.5,0.3-0.7s0.4-0.3,0.7-0.3h2.2c0.3,0,0.5,0.1,0.7,0.3c0.2,0.2,0.3,0.4,0.3,0.7
		L542.4,653.8z M539.3,619.1c-0.3,0-0.5-0.1-0.7-0.3c-0.2-0.2-0.3-0.4-0.3-0.7l0.1-3.9c0-0.3,0.1-0.5,0.3-0.6
		c0.2-0.2,0.4-0.2,0.6-0.2h1.8c0.2,0,0.5,0.1,0.6,0.3s0.3,0.4,0.3,0.7l0.1,3.8c0,0.3-0.1,0.5-0.3,0.7c-0.2,0.2-0.4,0.3-0.7,0.3
		H539.3z"/>
	<path class="st1" d="M572.9,653.8c0,0.3-0.1,0.5-0.3,0.7c-0.2,0.2-0.4,0.3-0.7,0.3h-2.5c-0.2,0-0.5-0.1-0.7-0.3
		c-0.2-0.2-0.3-0.4-0.3-0.7l0.1-18.8c0-1.1-0.1-2-0.4-2.9c-0.3-0.8-0.7-1.6-1.2-2.2c-0.5-0.6-1.1-1-1.9-1.4
		c-0.7-0.3-1.5-0.5-2.4-0.5c-1.1,0-2.2,0.3-3.3,0.9c-1.1,0.6-2.2,1.3-3.1,2.3c-0.9,1-1.7,2.1-2.3,3.4c-0.6,1.3-0.9,2.6-0.9,4
		l0.1,15.2c0,0.3-0.1,0.5-0.3,0.7c-0.2,0.2-0.4,0.3-0.7,0.3h-2.5c-0.2,0-0.5-0.1-0.7-0.3c-0.2-0.2-0.3-0.4-0.3-0.7l0.2-28
		c0-0.3,0.1-0.5,0.3-0.7c0.2-0.2,0.4-0.3,0.7-0.3h2.1c0.3,0,0.5,0.1,0.7,0.3c0.2,0.2,0.3,0.4,0.3,0.7l0,3c0,0.2,0.1,0.4,0.3,0.5
		s0.4,0.1,0.6-0.1c1.2-1.5,2.7-2.7,4.4-3.6c1.7-0.9,3.6-1.3,5.8-1.3c1.1,0,2.2,0.2,3.2,0.6c1,0.4,1.9,1,2.7,1.7
		c0.8,0.7,1.4,1.6,1.9,2.7c0.5,1,0.7,2.2,0.7,3.4L572.9,653.8z"/>
	<path class="st1" d="M605.9,654.2c0,1.9-0.4,3.7-1.1,5.3s-1.7,3.1-3,4.3c-1.2,1.2-2.7,2.2-4.3,2.8c-1.6,0.7-3.4,1-5.2,1
		c-1.6,0-3.1-0.3-4.5-0.8s-2.5-1.1-3.6-1.8c-1-0.7-1.8-1.4-2.4-2.2s-1-1.3-1.2-1.8c-0.1-0.3-0.1-0.5-0.1-0.7c0-0.2,0.1-0.3,0.2-0.4
		c0.1-0.1,0.2-0.2,0.3-0.2c0.1,0,0.2-0.1,0.3-0.1h2.9c0.4,0,0.6,0.2,0.8,0.5c0.8,1.1,1.9,1.9,3.1,2.5c1.2,0.6,2.6,0.9,4,0.9
		c1.2,0,2.4-0.2,3.5-0.7c1.1-0.5,2.1-1.1,2.9-1.9c0.8-0.8,1.5-1.8,2-2.9c0.5-1.1,0.8-2.4,0.8-3.7l0.1-2.9c0-0.3-0.1-0.5-0.4-0.6
		c-0.2-0.1-0.5,0-0.7,0.3c-0.5,0.5-1,1-1.6,1.5c-0.6,0.5-1.3,0.9-2.1,1.3c-0.8,0.4-1.6,0.7-2.6,1s-1.9,0.4-3,0.4
		c-2,0-3.8-0.4-5.5-1.2c-1.7-0.8-3.1-2-4.3-3.4s-2.2-3.1-2.9-5c-0.7-1.9-1-3.9-1-6c0-2.2,0.4-4.2,1.1-6.1c0.7-1.9,1.7-3.5,2.9-4.9
		c1.2-1.4,2.7-2.5,4.3-3.3c1.7-0.8,3.4-1.2,5.4-1.2c1.2,0,2.2,0.1,3.2,0.4c1,0.3,1.8,0.7,2.6,1.1c0.8,0.5,1.5,1,2.1,1.5
		c0.6,0.6,1.2,1.2,1.7,1.7c0.2,0.2,0.4,0.3,0.7,0.2s0.3-0.3,0.3-0.5l0-3c0-0.3,0.1-0.5,0.3-0.7c0.2-0.2,0.4-0.3,0.7-0.3h2.1
		c0.3,0,0.5,0.1,0.7,0.3s0.3,0.4,0.3,0.7L605.9,654.2z M591.7,651.1c1.5,0,2.9-0.3,4.2-1c1.2-0.7,2.3-1.5,3.1-2.6
		c0.8-1.1,1.5-2.3,2-3.7c0.5-1.4,0.7-2.8,0.7-4.2c0-1.6-0.3-3.1-0.8-4.5c-0.5-1.4-1.3-2.6-2.2-3.7c-0.9-1-2-1.9-3.3-2.4
		c-1.2-0.6-2.6-0.9-4-0.9c-1.5,0-2.8,0.3-4,0.9c-1.2,0.6-2.2,1.5-3,2.5c-0.8,1-1.5,2.3-1.9,3.6c-0.4,1.4-0.7,2.8-0.7,4.2
		c0,1.5,0.2,2.9,0.7,4.3c0.4,1.4,1.1,2.6,1.9,3.7c0.8,1.1,1.9,2,3.1,2.6C588.7,650.8,590.1,651.1,591.7,651.1z"/>
	<path class="st1" d="M646.5,632.7c0-0.8-0.2-1.6-0.6-2.2c-0.4-0.6-0.9-1.1-1.6-1.4c-0.6-0.4-1.4-0.6-2.2-0.8
		c-0.8-0.2-1.7-0.2-2.5-0.2c-0.8,0-1.6,0.1-2.4,0.2c-0.8,0.2-1.5,0.4-2.2,0.8c-0.7,0.3-1.3,0.8-1.9,1.4c-0.6,0.6-1,1.3-1.4,2.2
		c-0.2,0.4-0.3,0.6-0.4,0.8c-0.1,0.2-0.3,0.3-0.6,0.3h-2.2c-0.4,0-0.6-0.1-0.7-0.3c-0.1-0.2-0.2-0.5-0.1-0.8
		c0.3-1.5,0.9-2.8,1.7-3.9c0.8-1.1,1.8-1.9,3-2.6c1.1-0.7,2.4-1.2,3.7-1.5c1.3-0.3,2.6-0.5,3.9-0.5c1.3,0,2.6,0.2,3.9,0.5
		c1.3,0.3,2.4,0.8,3.4,1.5c1,0.7,1.8,1.6,2.4,2.7c0.6,1.1,0.9,2.5,0.9,4.1l0.1,20.6c0,0.3-0.1,0.5-0.3,0.7c-0.2,0.2-0.4,0.3-0.7,0.3
		h-2.5c-0.2,0-0.5-0.1-0.7-0.3c-0.2-0.2-0.3-0.4-0.3-0.7l0-2.3c0-0.3-0.1-0.4-0.3-0.5s-0.4,0-0.6,0.2c-0.7,0.8-1.5,1.4-2.4,1.9
		c-0.8,0.5-1.7,0.9-2.6,1.3c-0.9,0.3-1.7,0.6-2.6,0.7s-1.6,0.2-2.4,0.2c-1.5,0-2.7-0.2-3.9-0.7s-2.1-1.1-2.9-1.9
		c-0.8-0.8-1.4-1.7-1.8-2.7c-0.4-1-0.6-2.1-0.6-3.1c0-0.9,0.1-1.8,0.4-2.7c0.3-0.9,0.7-1.7,1.2-2.4c0.5-0.7,1.1-1.3,1.9-1.8
		c0.7-0.5,1.5-0.9,2.4-1.1c1-0.2,2.1-0.5,3.3-0.7c1.2-0.2,2.4-0.5,3.5-0.7c1.2-0.2,2.2-0.5,3.3-0.8c1-0.3,1.8-0.6,2.5-1
		c0.6-0.3,1-0.7,1.3-1.1C646.3,634,646.5,633.4,646.5,632.7z M630.6,646.5c0,1.1,0.3,2,0.9,2.7c0.6,0.7,1.3,1.2,2.2,1.5
		c0.9,0.3,1.9,0.4,3,0.4c1.1,0,2.2-0.2,3.2-0.5c1.1-0.3,2-0.7,2.9-1.3c0.9-0.5,1.6-1.1,2-1.8c0.3-0.5,0.6-1.1,0.8-1.8
		c0.2-0.7,0.4-1.4,0.5-2.2c0.1-0.7,0.2-1.5,0.2-2.2c0-0.7,0.1-1.4,0.1-2c0-0.3-0.1-0.4-0.4-0.4c-0.9,0.3-1.8,0.6-2.7,0.9
		s-1.8,0.5-2.7,0.7c-0.9,0.2-1.9,0.4-2.9,0.7c-1,0.2-2.1,0.4-3.3,0.7c-1.2,0.3-2.2,0.8-2.9,1.6C630.9,644.2,630.6,645.2,630.6,646.5
		z"/>
	<path class="st1" d="M703.3,643c0,2.2-0.4,4.1-1.3,5.7c-0.8,1.6-1.9,2.8-3.3,3.8s-3,1.7-4.8,2.2s-3.8,0.7-5.8,0.7
		c-1.1,0-2.2-0.1-3.3-0.3c-1.2-0.2-2.3-0.5-3.4-0.9c-1.1-0.4-2.3-0.9-3.3-1.6c-1.1-0.6-2-1.4-2.9-2.3c-0.9-0.9-1.6-1.9-2.2-3.1
		c-0.6-1.2-1-2.5-1.3-4c0-0.3,0-0.6,0.2-0.8c0.1-0.2,0.4-0.3,0.8-0.3h2.6c0.2,0,0.4,0.1,0.6,0.2c0.2,0.1,0.3,0.3,0.4,0.5
		c0.3,1.3,0.8,2.4,1.6,3.5c0.8,1,1.7,1.9,2.7,2.6c1.1,0.7,2.2,1.3,3.5,1.6c1.3,0.4,2.7,0.6,4,0.6c1.4,0,2.7-0.1,4-0.4
		c1.3-0.3,2.5-0.7,3.5-1.4c1-0.6,1.9-1.4,2.5-2.3c0.6-0.9,0.9-2.1,0.9-3.4c0-1.4-0.3-2.5-1-3.4c-0.6-0.9-1.5-1.6-2.5-2.2
		c-1.1-0.6-2.3-1.1-3.6-1.5c-1.4-0.4-2.7-0.7-4.1-1c-1.8-0.4-3.6-0.9-5.3-1.4c-1.7-0.6-3.2-1.3-4.5-2.2c-1.3-0.9-2.4-2-3.2-3.3
		s-1.2-2.9-1.2-4.7c0-1.8,0.4-3.3,1.1-4.7c0.7-1.3,1.7-2.5,3-3.4c1.2-0.9,2.7-1.6,4.3-2.1s3.3-0.7,5.1-0.7c1.7,0,3.4,0.2,5.1,0.6
		c1.7,0.4,3.2,1.1,4.6,1.9c1.4,0.9,2.6,2,3.6,3.3c1,1.4,1.7,3,2.1,4.8c0.1,0.3,0,0.5-0.2,0.7c-0.2,0.2-0.4,0.3-0.8,0.3h-2.5
		c-0.3,0-0.5-0.1-0.6-0.3c-0.2-0.2-0.3-0.4-0.4-0.7c-0.4-1.2-1-2.2-1.8-3s-1.7-1.5-2.6-2c-1-0.5-2-0.9-3.1-1.1
		c-1.1-0.2-2.1-0.3-3-0.3c-1,0-2,0.1-3.1,0.3c-1.1,0.2-2.1,0.6-3.1,1.1c-0.9,0.5-1.7,1.2-2.3,2c-0.6,0.8-0.9,1.8-0.9,3
		c0,1,0.2,1.8,0.6,2.5c0.4,0.7,0.9,1.4,1.5,2c0.6,0.6,1.4,1.1,2.2,1.5c0.8,0.4,1.7,0.8,2.6,1c0.9,0.3,1.7,0.5,2.6,0.7
		c0.8,0.2,1.6,0.3,2.3,0.5c1.8,0.3,3.5,0.8,5.2,1.3c1.6,0.5,3.1,1.2,4.3,2.1c1.3,0.8,2.3,1.9,3,3.2
		C702.9,639.5,703.3,641.1,703.3,643z"/>
	<path class="st1" d="M732,653.8c0,0.3-0.1,0.5-0.3,0.7c-0.2,0.2-0.4,0.3-0.7,0.3h-2.5c-0.2,0-0.5-0.1-0.7-0.3
		c-0.2-0.2-0.3-0.4-0.3-0.7v-2.3c0-0.3-0.1-0.5-0.3-0.6s-0.4,0-0.6,0.2c-1,1.2-2.2,2.2-3.6,3c-1.4,0.8-3,1.2-4.7,1.2
		c-1.7,0-3.2-0.3-4.4-0.9c-1.3-0.6-2.3-1.4-3.2-2.4c-0.8-1-1.5-2.2-1.9-3.5c-0.4-1.3-0.6-2.7-0.6-4.2l0.1-18.5
		c0-0.3,0.1-0.5,0.3-0.7s0.4-0.3,0.6-0.3h2.2c0.3,0,0.5,0.1,0.7,0.3c0.2,0.2,0.3,0.4,0.3,0.7l0.1,18.4c0,1.1,0.2,2.1,0.5,3
		c0.3,0.9,0.8,1.6,1.3,2.2c0.6,0.6,1.2,1,2,1.3s1.6,0.5,2.5,0.5c1,0,2-0.2,3.1-0.5c1-0.4,2-0.9,2.8-1.6s1.5-1.6,2.1-2.6
		c0.5-1.1,0.8-2.3,0.8-3.7l0.1-16.9c0-0.3,0.1-0.5,0.3-0.7c0.2-0.2,0.4-0.3,0.7-0.3h2.2c0.3,0,0.5,0.1,0.7,0.3
		c0.2,0.2,0.3,0.4,0.3,0.7L732,653.8z"/>
	<path class="st1" d="M762.3,653.8c0,0.3-0.1,0.5-0.3,0.7c-0.2,0.2-0.4,0.3-0.7,0.3h-2.5c-0.2,0-0.5-0.1-0.7-0.3
		c-0.2-0.2-0.3-0.4-0.3-0.7l0.1-18.7c0-0.9-0.1-1.8-0.4-2.7c-0.3-0.8-0.7-1.6-1.2-2.2c-0.5-0.6-1.1-1.1-1.9-1.5s-1.5-0.6-2.4-0.6
		c-1.1,0-2.2,0.3-3.4,0.9c-1.1,0.6-2.2,1.4-3.1,2.3c-0.9,1-1.6,2.1-2.2,3.4s-0.8,2.6-0.8,4l0.1,15.2c0,0.3-0.1,0.5-0.3,0.7
		c-0.2,0.2-0.4,0.3-0.7,0.3h-2.5c-0.2,0-0.5-0.1-0.7-0.3c-0.2-0.2-0.3-0.4-0.3-0.7l0.2-28c0-0.3,0.1-0.5,0.3-0.7
		c0.2-0.2,0.4-0.3,0.7-0.3h2.1c0.3,0,0.5,0.1,0.7,0.3c0.2,0.2,0.3,0.4,0.3,0.7l0,3c0,0.2,0.1,0.4,0.3,0.5s0.4,0.1,0.6-0.1
		c1.2-1.5,2.7-2.7,4.4-3.6c1.7-0.9,3.6-1.3,5.7-1.3c0.9,0,1.7,0.1,2.5,0.4c0.8,0.2,1.5,0.6,2.2,1c0.7,0.4,1.3,0.9,1.8,1.5
		c0.5,0.6,0.9,1.2,1.3,1.9c0.1,0.2,0.2,0.3,0.4,0.3c0.2,0,0.4,0,0.6-0.2c1.2-1.5,2.6-2.6,4.2-3.5c1.7-0.9,3.6-1.3,5.8-1.3
		c1.1,0,2.2,0.2,3.2,0.6c1,0.4,1.9,1,2.7,1.7c0.8,0.7,1.4,1.6,1.8,2.7c0.5,1,0.7,2.2,0.7,3.4l0.1,21.1c0,0.3-0.1,0.5-0.3,0.7
		c-0.2,0.2-0.4,0.3-0.7,0.3h-2.5c-0.2,0-0.5-0.1-0.7-0.3c-0.2-0.2-0.3-0.4-0.3-0.7l0.1-18.8c0-1.1-0.1-2-0.4-2.9
		c-0.3-0.8-0.7-1.6-1.2-2.2c-0.5-0.6-1.1-1-1.9-1.4c-0.7-0.3-1.5-0.5-2.4-0.5c-0.5,0-1.1,0.1-1.7,0.4s-1.3,0.6-1.9,1.1
		c-0.6,0.5-1.2,1-1.8,1.7c-0.6,0.6-1.1,1.4-1.6,2.1c-0.5,0.8-0.8,1.6-1.1,2.5c-0.3,0.9-0.4,1.8-0.4,2.7L762.3,653.8z"/>
	<path class="st1" d="M810.9,653.8c0,0.3-0.1,0.5-0.3,0.7c-0.2,0.2-0.4,0.3-0.7,0.3h-2.5c-0.2,0-0.5-0.1-0.7-0.3
		c-0.2-0.2-0.3-0.4-0.3-0.7l0.1-18.7c0-0.9-0.1-1.8-0.4-2.7c-0.3-0.8-0.7-1.6-1.2-2.2c-0.5-0.6-1.1-1.1-1.9-1.5s-1.5-0.6-2.4-0.6
		c-1.1,0-2.2,0.3-3.4,0.9c-1.1,0.6-2.2,1.4-3.1,2.3c-0.9,1-1.6,2.1-2.2,3.4s-0.8,2.6-0.8,4l0.1,15.2c0,0.3-0.1,0.5-0.3,0.7
		c-0.2,0.2-0.4,0.3-0.7,0.3h-2.5c-0.2,0-0.5-0.1-0.7-0.3c-0.2-0.2-0.3-0.4-0.3-0.7l0.2-28c0-0.3,0.1-0.5,0.3-0.7
		c0.2-0.2,0.4-0.3,0.7-0.3h2.1c0.3,0,0.5,0.1,0.7,0.3c0.2,0.2,0.3,0.4,0.3,0.7l0,3c0,0.2,0.1,0.4,0.3,0.5s0.4,0.1,0.6-0.1
		c1.2-1.5,2.7-2.7,4.4-3.6c1.7-0.9,3.6-1.3,5.7-1.3c0.9,0,1.7,0.1,2.5,0.4c0.8,0.2,1.5,0.6,2.2,1c0.7,0.4,1.3,0.9,1.8,1.5
		c0.5,0.6,0.9,1.2,1.3,1.9c0.1,0.2,0.2,0.3,0.4,0.3c0.2,0,0.4,0,0.6-0.2c1.2-1.5,2.6-2.6,4.2-3.5c1.7-0.9,3.6-1.3,5.8-1.3
		c1.1,0,2.2,0.2,3.2,0.6c1,0.4,1.9,1,2.7,1.7c0.8,0.7,1.4,1.6,1.8,2.7c0.5,1,0.7,2.2,0.7,3.4l0.1,21.1c0,0.3-0.1,0.5-0.3,0.7
		c-0.2,0.2-0.4,0.3-0.7,0.3H826c-0.2,0-0.5-0.1-0.7-0.3c-0.2-0.2-0.3-0.4-0.3-0.7l0.1-18.8c0-1.1-0.1-2-0.4-2.9
		c-0.3-0.8-0.7-1.6-1.2-2.2c-0.5-0.6-1.1-1-1.9-1.4c-0.7-0.3-1.5-0.5-2.4-0.5c-0.5,0-1.1,0.1-1.7,0.4s-1.3,0.6-1.9,1.1
		c-0.6,0.5-1.2,1-1.8,1.7c-0.6,0.6-1.1,1.4-1.6,2.1c-0.5,0.8-0.8,1.6-1.1,2.5c-0.3,0.9-0.4,1.8-0.4,2.7L810.9,653.8z"/>
	<path class="st1" d="M840.2,653.8c0,0.3-0.1,0.5-0.3,0.7c-0.2,0.2-0.4,0.3-0.7,0.3h-2.5c-0.2,0-0.5-0.1-0.7-0.3
		c-0.2-0.2-0.3-0.4-0.3-0.7l0.2-28c0-0.3,0.1-0.5,0.3-0.7s0.4-0.3,0.7-0.3h2.2c0.3,0,0.5,0.1,0.7,0.3c0.2,0.2,0.3,0.4,0.3,0.7
		L840.2,653.8z M837.1,619.1c-0.3,0-0.5-0.1-0.7-0.3c-0.2-0.2-0.3-0.4-0.3-0.7l0.1-3.9c0-0.3,0.1-0.5,0.3-0.6
		c0.2-0.2,0.4-0.2,0.6-0.2h1.8c0.2,0,0.5,0.1,0.6,0.3s0.3,0.4,0.3,0.7l0.1,3.8c0,0.3-0.1,0.5-0.3,0.7c-0.2,0.2-0.4,0.3-0.7,0.3
		H837.1z"/>
	<path class="st1" d="M858.8,627.4c0,0.2-0.1,0.5-0.3,0.6c-0.2,0.2-0.4,0.3-0.6,0.3h-3.8c-0.2,0-0.3,0.1-0.4,0.2s-0.2,0.2-0.2,0.4
		l0.2,25c0,0.3-0.1,0.5-0.3,0.7c-0.2,0.2-0.4,0.3-0.7,0.3h-2.5c-0.2,0-0.5-0.1-0.7-0.3c-0.2-0.2-0.3-0.4-0.3-0.7l0.2-24.9
		c0-0.2-0.1-0.3-0.2-0.4s-0.2-0.2-0.4-0.2h-3.2c-0.3,0-0.5-0.1-0.7-0.3c-0.2-0.2-0.3-0.4-0.3-0.7l0-1.6c0-0.3,0.1-0.5,0.3-0.6
		c0.2-0.2,0.4-0.2,0.6-0.2h3.2c0.2,0,0.3-0.1,0.4-0.2c0.1-0.1,0.2-0.3,0.2-0.4l0.1-9.9c0-0.3,0.1-0.5,0.3-0.7
		c0.2-0.2,0.4-0.3,0.7-0.3h2c0.3,0,0.5,0.1,0.7,0.3c0.2,0.2,0.3,0.4,0.3,0.7l0.1,9.9c0,0.2,0.1,0.3,0.2,0.4c0.1,0.1,0.3,0.2,0.4,0.2
		h3.7c0.3,0,0.5,0.1,0.7,0.3c0.2,0.2,0.3,0.4,0.3,0.6L858.8,627.4z"/>
	<path class="st1" d="M883.5,653.8c0,0.3-0.1,0.5-0.3,0.7c-0.2,0.2-0.4,0.3-0.7,0.3H880c-0.2,0-0.5-0.1-0.7-0.3
		c-0.2-0.2-0.3-0.4-0.3-0.7l0.2-28c0-0.3,0.1-0.5,0.3-0.7s0.4-0.3,0.7-0.3h2.2c0.3,0,0.5,0.1,0.7,0.3c0.2,0.2,0.3,0.4,0.3,0.7
		L883.5,653.8z M880.4,619.1c-0.3,0-0.5-0.1-0.7-0.3c-0.2-0.2-0.3-0.4-0.3-0.7l0.1-3.9c0-0.3,0.1-0.5,0.3-0.6
		c0.2-0.2,0.4-0.2,0.6-0.2h1.8c0.2,0,0.5,0.1,0.6,0.3s0.3,0.4,0.3,0.7l0.1,3.8c0,0.3-0.1,0.5-0.3,0.7c-0.2,0.2-0.4,0.3-0.7,0.3
		H880.4z"/>
	<path class="st1" d="M890.2,632.6c0-1.4,0.3-2.6,0.8-3.6c0.6-1,1.3-1.9,2.2-2.6c0.9-0.7,2-1.2,3.3-1.6c1.2-0.3,2.5-0.5,3.9-0.6
		c1.3,0,2.5,0.1,3.5,0.4c1.1,0.3,2,0.6,2.8,1.1c0.8,0.4,1.5,0.9,2.1,1.5c0.6,0.6,1.1,1.1,1.5,1.7c0.4,0.5,0.7,1.1,0.9,1.5
		c0.2,0.5,0.3,0.9,0.4,1.1c0.1,0.4,0,0.7-0.2,0.8c-0.2,0.1-0.4,0.2-0.7,0.2h-2.4c-0.2,0-0.4,0-0.5-0.1s-0.2-0.2-0.3-0.4
		c-0.2-0.4-0.5-0.9-0.8-1.3c-0.3-0.5-0.7-0.9-1.2-1.3c-0.5-0.4-1.1-0.7-1.9-1c-0.8-0.3-1.7-0.4-2.8-0.4c-0.9,0-1.8,0.1-2.5,0.3
		c-0.8,0.2-1.4,0.5-2,0.8c-0.5,0.4-1,0.8-1.3,1.3c-0.3,0.5-0.5,1.1-0.5,1.7c0,0.9,0.3,1.6,0.8,2.2c0.5,0.6,1.2,1,2.1,1.4
		c0.8,0.4,1.8,0.7,2.9,1c1.1,0.3,2.2,0.6,3.3,0.9s2.2,0.7,3.3,1.1c1.1,0.4,2.1,0.9,2.9,1.6s1.5,1.4,2.1,2.4c0.5,0.9,0.8,2.1,0.8,3.5
		c0,1.5-0.3,2.7-0.9,3.9c-0.6,1.1-1.4,2.1-2.4,2.8c-1,0.8-2.2,1.3-3.5,1.7s-2.8,0.6-4.4,0.6c-1.7,0-3.3-0.2-4.8-0.7
		c-1.4-0.5-2.7-1.1-3.8-1.9c-1.1-0.8-2-1.7-2.7-2.7c-0.7-1-1.2-2.1-1.6-3.1c-0.1-0.4-0.1-0.7-0.1-0.8c0.1-0.2,0.3-0.2,0.8-0.2h2.8
		c0.2,0,0.4,0.1,0.5,0.2c0.1,0.1,0.2,0.3,0.3,0.4c0.2,0.4,0.5,0.8,0.9,1.4c0.4,0.5,0.9,1,1.5,1.5s1.4,0.9,2.3,1.2
		c0.9,0.3,2,0.5,3.3,0.5c1,0,1.9-0.1,2.8-0.3c0.9-0.2,1.7-0.5,2.3-0.9c0.7-0.4,1.2-0.9,1.6-1.5c0.4-0.6,0.6-1.2,0.6-2
		c0-0.8-0.3-1.6-0.8-2.1c-0.5-0.6-1.2-1-2.1-1.4c-0.8-0.4-1.8-0.7-2.9-1c-1.1-0.3-2.2-0.6-3.3-0.9s-2.2-0.7-3.3-1.1
		c-1.1-0.4-2.1-0.9-2.9-1.6c-0.8-0.6-1.5-1.4-2.1-2.3C890.5,635,890.2,633.9,890.2,632.6z"/>
	<path class="st1" d="M966.1,653.8c0,0.3-0.1,0.5-0.3,0.7c-0.2,0.2-0.4,0.3-0.7,0.3h-4c-0.2,0-0.4-0.1-0.6-0.2
		c-0.1-0.1-0.2-0.2-0.4-0.4l-21.4-33.2c-0.1-0.2-0.3-0.3-0.6-0.3s-0.4,0.2-0.4,0.5l0.2,32.6c0,0.3-0.1,0.5-0.3,0.7
		c-0.2,0.2-0.4,0.3-0.7,0.3h-2.6c-0.3,0-0.5-0.1-0.7-0.3c-0.2-0.2-0.3-0.4-0.3-0.7l0.3-39.4c0-0.3,0.1-0.5,0.3-0.7
		c0.2-0.2,0.4-0.3,0.7-0.3h3.4c0.3,0,0.5,0.1,0.7,0.4l21.8,32.9c0.1,0.2,0.3,0.3,0.6,0.3c0.3-0.1,0.4-0.2,0.4-0.5l0.3-32.1
		c0-0.3,0.1-0.5,0.3-0.7c0.2-0.2,0.4-0.3,0.7-0.3h2.2c0.3,0,0.5,0.1,0.7,0.3c0.2,0.2,0.3,0.4,0.3,0.7L966.1,653.8z"/>
	<path class="st1" d="M985.5,655.3c-2.1,0-4.1-0.4-5.9-1.2c-1.8-0.8-3.3-1.9-4.6-3.4c-1.3-1.4-2.3-3.1-3-5c-0.7-1.9-1.1-3.9-1.1-6
		c0-2.1,0.4-4,1.1-5.9s1.7-3.5,3-4.9s2.8-2.5,4.6-3.4c1.8-0.8,3.7-1.3,5.9-1.3c2.1,0,4.1,0.4,5.8,1.3c1.8,0.8,3.3,2,4.6,3.4
		s2.3,3.1,3,4.9c0.7,1.9,1.1,3.8,1.1,5.9c0,2.1-0.4,4.1-1.1,6c-0.7,1.9-1.7,3.5-3,5c-1.3,1.4-2.8,2.5-4.6,3.4
		C989.5,654.9,987.6,655.3,985.5,655.3z M995.6,639.8c0-1.5-0.2-2.9-0.7-4.3c-0.5-1.4-1.2-2.6-2.1-3.7c-0.9-1.1-2-2-3.2-2.6
		c-1.2-0.7-2.6-1-4.1-1c-1.6,0-3,0.3-4.2,1c-1.3,0.6-2.3,1.5-3.2,2.6c-0.9,1.1-1.6,2.3-2,3.7c-0.5,1.4-0.7,2.8-0.7,4.2
		c0,1.7,0.3,3.3,0.8,4.7c0.5,1.4,1.3,2.6,2.2,3.7c0.9,1,2,1.8,3.2,2.3c1.2,0.5,2.6,0.8,4,0.8c1.4,0,2.6-0.3,3.9-0.8
		c1.2-0.5,2.3-1.3,3.2-2.3c0.9-1,1.7-2.2,2.2-3.6C995.3,643.1,995.6,641.5,995.6,639.8z"/>
	<path class="st1" d="M1043.9,624.9c0.3,0,0.6,0.1,0.7,0.4c0.2,0.3,0.2,0.5,0.1,0.8l-8.1,28c-0.1,0.4-0.4,0.7-0.9,0.7h-3.7
		c-0.5,0-0.8-0.2-1-0.7l-5.9-21.3c-0.1-0.3-0.3-0.4-0.5-0.4c-0.3,0-0.4,0.2-0.5,0.4l-5.7,21.3c-0.2,0.4-0.4,0.7-0.9,0.7h-3.7
		c-0.5,0-0.8-0.2-1-0.7l-8.4-28c-0.1-0.3,0-0.6,0.1-0.8c0.2-0.2,0.4-0.4,0.7-0.4h2.2c0.5,0,0.8,0.2,0.9,0.6l6.7,23.2
		c0.1,0.2,0.3,0.3,0.5,0.3c0.2,0,0.4-0.1,0.5-0.3l6.5-23c0.1-0.2,0.2-0.4,0.4-0.6c0.2-0.1,0.4-0.2,0.6-0.2h2.1c0.5,0,0.8,0.2,1,0.7
		l6.7,23.1c0.1,0.2,0.3,0.3,0.5,0.3c0.2,0,0.4-0.1,0.5-0.3l6.5-23.2c0.1-0.4,0.4-0.6,0.9-0.6H1043.9z"/>
	<path class="st1" d="M1092.6,653.8c0,0.3-0.1,0.5-0.3,0.7c-0.2,0.2-0.4,0.3-0.7,0.3h-25.4c-0.3,0-0.5-0.1-0.7-0.3
		c-0.2-0.2-0.3-0.4-0.3-0.7l0.3-39.4c0-0.3,0.1-0.5,0.3-0.7c0.2-0.2,0.4-0.3,0.7-0.3h24.6c0.2,0,0.4,0.1,0.6,0.2
		c0.2,0.2,0.2,0.4,0.2,0.6l0,2.4c0,0.2-0.1,0.4-0.2,0.6c-0.1,0.2-0.3,0.3-0.6,0.3h-20.8c-0.3,0-0.5,0.1-0.6,0.3
		c-0.1,0.2-0.2,0.4-0.2,0.6l0.1,11.5c0,0.2,0.1,0.4,0.2,0.6c0.2,0.2,0.3,0.2,0.6,0.2h18.9c0.2,0,0.4,0.1,0.6,0.2
		c0.2,0.2,0.2,0.4,0.2,0.6l0,2.4c0,0.2-0.1,0.5-0.2,0.6c-0.2,0.2-0.4,0.2-0.6,0.2h-18.8c-0.3,0-0.5,0.1-0.6,0.2
		c-0.1,0.2-0.2,0.3-0.2,0.6l0.1,13.8c0,0.2,0.1,0.4,0.2,0.5c0.2,0.2,0.3,0.2,0.6,0.2h21c0.3,0,0.5,0.1,0.7,0.2
		c0.2,0.1,0.3,0.3,0.3,0.6L1092.6,653.8z"/>
	<path class="st1" d="M1117.2,632.7c0-0.8-0.2-1.6-0.6-2.2c-0.4-0.6-0.9-1.1-1.6-1.4c-0.6-0.4-1.4-0.6-2.2-0.8
		c-0.8-0.2-1.7-0.2-2.5-0.2c-0.8,0-1.6,0.1-2.4,0.2c-0.8,0.2-1.5,0.4-2.2,0.8c-0.7,0.3-1.3,0.8-1.9,1.4c-0.6,0.6-1,1.3-1.4,2.2
		c-0.2,0.4-0.3,0.6-0.4,0.8c-0.1,0.2-0.3,0.3-0.6,0.3h-2.2c-0.4,0-0.6-0.1-0.7-0.3c-0.1-0.2-0.2-0.5-0.1-0.8
		c0.3-1.5,0.9-2.8,1.7-3.9c0.8-1.1,1.8-1.9,3-2.6c1.1-0.7,2.4-1.2,3.7-1.5c1.3-0.3,2.6-0.5,3.9-0.5c1.3,0,2.6,0.2,3.9,0.5
		c1.3,0.3,2.4,0.8,3.4,1.5c1,0.7,1.8,1.6,2.4,2.7c0.6,1.1,0.9,2.5,0.9,4.1l0.1,20.6c0,0.3-0.1,0.5-0.3,0.7c-0.2,0.2-0.4,0.3-0.7,0.3
		h-2.5c-0.2,0-0.5-0.1-0.7-0.3c-0.2-0.2-0.3-0.4-0.3-0.7l0-2.3c0-0.3-0.1-0.4-0.3-0.5s-0.4,0-0.6,0.2c-0.7,0.8-1.5,1.4-2.4,1.9
		c-0.8,0.5-1.7,0.9-2.6,1.3c-0.9,0.3-1.7,0.6-2.6,0.7s-1.6,0.2-2.4,0.2c-1.5,0-2.7-0.2-3.9-0.7s-2.1-1.1-2.9-1.9
		c-0.8-0.8-1.4-1.7-1.8-2.7c-0.4-1-0.6-2.1-0.6-3.1c0-0.9,0.1-1.8,0.4-2.7c0.3-0.9,0.7-1.7,1.2-2.4c0.5-0.7,1.1-1.3,1.9-1.8
		c0.7-0.5,1.5-0.9,2.4-1.1c1-0.2,2.1-0.5,3.3-0.7c1.2-0.2,2.4-0.5,3.5-0.7c1.2-0.2,2.2-0.5,3.3-0.8c1-0.3,1.8-0.6,2.5-1
		c0.6-0.3,1-0.7,1.3-1.1C1117.1,634,1117.2,633.4,1117.2,632.7z M1101.3,646.5c0,1.1,0.3,2,0.9,2.7c0.6,0.7,1.3,1.2,2.2,1.5
		c0.9,0.3,1.9,0.4,3,0.4c1.1,0,2.2-0.2,3.2-0.5c1.1-0.3,2-0.7,2.9-1.3c0.9-0.5,1.6-1.1,2-1.8c0.3-0.5,0.6-1.1,0.8-1.8
		c0.2-0.7,0.4-1.4,0.5-2.2c0.1-0.7,0.2-1.5,0.2-2.2c0-0.7,0.1-1.4,0.1-2c0-0.3-0.1-0.4-0.4-0.4c-0.9,0.3-1.8,0.6-2.7,0.9
		s-1.8,0.5-2.7,0.7c-0.9,0.2-1.9,0.4-2.9,0.7c-1,0.2-2.1,0.4-3.3,0.7c-1.2,0.3-2.2,0.8-2.9,1.6
		C1101.7,644.2,1101.3,645.2,1101.3,646.5z"/>
	<path class="st1" d="M1127.6,632.6c0-1.4,0.3-2.6,0.8-3.6c0.6-1,1.3-1.9,2.2-2.6c0.9-0.7,2-1.2,3.3-1.6c1.2-0.3,2.5-0.5,3.9-0.6
		c1.3,0,2.5,0.1,3.5,0.4c1.1,0.3,2,0.6,2.8,1.1c0.8,0.4,1.5,0.9,2.1,1.5c0.6,0.6,1.1,1.1,1.5,1.7c0.4,0.5,0.7,1.1,0.9,1.5
		c0.2,0.5,0.3,0.9,0.4,1.1c0.1,0.4,0,0.7-0.2,0.8c-0.2,0.1-0.4,0.2-0.7,0.2h-2.4c-0.2,0-0.4,0-0.5-0.1s-0.2-0.2-0.3-0.4
		c-0.2-0.4-0.5-0.9-0.8-1.3c-0.3-0.5-0.7-0.9-1.2-1.3c-0.5-0.4-1.1-0.7-1.9-1c-0.8-0.3-1.7-0.4-2.8-0.4c-0.9,0-1.8,0.1-2.5,0.3
		c-0.8,0.2-1.4,0.5-2,0.8c-0.5,0.4-1,0.8-1.3,1.3c-0.3,0.5-0.5,1.1-0.5,1.7c0,0.9,0.3,1.6,0.8,2.2c0.5,0.6,1.2,1,2.1,1.4
		c0.8,0.4,1.8,0.7,2.9,1c1.1,0.3,2.2,0.6,3.3,0.9s2.2,0.7,3.3,1.1c1.1,0.4,2.1,0.9,2.9,1.6s1.5,1.4,2.1,2.4c0.5,0.9,0.8,2.1,0.8,3.5
		c0,1.5-0.3,2.7-0.9,3.9c-0.6,1.1-1.4,2.1-2.4,2.8c-1,0.8-2.2,1.3-3.5,1.7s-2.8,0.6-4.4,0.6c-1.7,0-3.3-0.2-4.8-0.7
		c-1.4-0.5-2.7-1.1-3.8-1.9c-1.1-0.8-2-1.7-2.7-2.7c-0.7-1-1.2-2.1-1.6-3.1c-0.1-0.4-0.1-0.7-0.1-0.8c0.1-0.2,0.3-0.2,0.8-0.2h2.8
		c0.2,0,0.4,0.1,0.5,0.2c0.1,0.1,0.2,0.3,0.3,0.4c0.2,0.4,0.5,0.8,0.9,1.4c0.4,0.5,0.9,1,1.5,1.5s1.4,0.9,2.3,1.2
		c0.9,0.3,2,0.5,3.3,0.5c1,0,1.9-0.1,2.8-0.3c0.9-0.2,1.7-0.5,2.3-0.9c0.7-0.4,1.2-0.9,1.6-1.5c0.4-0.6,0.6-1.2,0.6-2
		c0-0.8-0.3-1.6-0.8-2.1c-0.5-0.6-1.2-1-2.1-1.4c-0.8-0.4-1.8-0.7-2.9-1c-1.1-0.3-2.2-0.6-3.3-0.9s-2.2-0.7-3.3-1.1
		c-1.1-0.4-2.1-0.9-2.9-1.6c-0.8-0.6-1.5-1.4-2.1-2.3C1127.9,635,1127.6,633.9,1127.6,632.6z"/>
	<path class="st1" d="M1160,653.8c0,0.3-0.1,0.5-0.3,0.7c-0.2,0.2-0.4,0.3-0.7,0.3h-2.5c-0.2,0-0.5-0.1-0.7-0.3
		c-0.2-0.2-0.3-0.4-0.3-0.7l0.2-28c0-0.3,0.1-0.5,0.3-0.7s0.4-0.3,0.7-0.3h2.2c0.3,0,0.5,0.1,0.7,0.3c0.2,0.2,0.3,0.4,0.3,0.7
		L1160,653.8z M1156.9,619.1c-0.3,0-0.5-0.1-0.7-0.3c-0.2-0.2-0.3-0.4-0.3-0.7l0.1-3.9c0-0.3,0.1-0.5,0.3-0.6
		c0.2-0.2,0.4-0.2,0.6-0.2h1.8c0.2,0,0.5,0.1,0.6,0.3s0.3,0.4,0.3,0.7l0.1,3.8c0,0.3-0.1,0.5-0.3,0.7c-0.2,0.2-0.4,0.3-0.7,0.3
		H1156.9z"/>
	<path class="st1" d="M1193.8,638.9c0,0.3-0.1,0.6-0.3,0.8c-0.2,0.2-0.4,0.3-0.7,0.3H1170c-0.4,0-0.5,0.2-0.5,0.6
		c0.1,1.5,0.4,2.9,0.9,4.2c0.5,1.3,1.2,2.4,2.1,3.3c0.9,0.9,1.9,1.7,3.1,2.2c1.2,0.5,2.6,0.8,4,0.8c1.9,0,3.5-0.4,4.9-1.3
		s2.6-2,3.5-3.4c0.2-0.3,0.5-0.5,0.8-0.5h2.7c0.4,0,0.6,0.2,0.8,0.5c0.2,0.3,0.2,0.6,0,0.9c-0.6,1.2-1.3,2.3-2.2,3.3
		s-1.8,1.8-2.9,2.5s-2.3,1.3-3.5,1.6s-2.6,0.6-4.1,0.6c-2.2,0-4.1-0.4-5.9-1.2c-1.8-0.8-3.3-1.9-4.6-3.3c-1.3-1.4-2.2-3-2.9-4.9
		c-0.7-1.9-1-4-1-6.2c0-2.3,0.4-4.3,1.1-6.2c0.7-1.9,1.7-3.5,3-4.9c1.3-1.4,2.8-2.4,4.6-3.2c1.8-0.8,3.7-1.1,5.8-1.1
		c2.1,0,4,0.4,5.7,1.2c1.7,0.8,3.2,1.9,4.4,3.2c1.2,1.4,2.2,2.9,2.9,4.7C1193.3,635.2,1193.7,637,1193.8,638.9z M1188.4,636.5
		c0.2,0,0.4-0.1,0.5-0.2c0.1-0.1,0.1-0.3,0-0.5c-0.3-1-0.8-2-1.4-2.9c-0.6-0.9-1.3-1.7-2.1-2.4c-0.8-0.7-1.7-1.3-2.7-1.7
		c-1-0.4-2.1-0.6-3.2-0.6c-1.2,0-2.2,0.2-3.3,0.6c-1,0.4-2,0.9-2.8,1.6c-0.8,0.7-1.5,1.5-2.2,2.4c-0.6,0.9-1.1,1.9-1.4,3
		c-0.1,0.2-0.1,0.4,0,0.5c0.1,0.1,0.3,0.2,0.5,0.2H1188.4z"/>
	<path class="st1" d="M1213.8,627.9c0,0.2-0.1,0.5-0.3,0.7c-0.2,0.2-0.4,0.3-0.7,0.3c-1.3,0-2.5,0.2-3.7,0.6
		c-1.2,0.4-2.2,0.9-3.1,1.6c-0.9,0.7-1.6,1.5-2.2,2.5c-0.5,1-0.8,2-0.8,3.2l0.1,17c0,0.3-0.1,0.5-0.3,0.7c-0.2,0.2-0.4,0.3-0.7,0.3
		h-2.5c-0.2,0-0.5-0.1-0.7-0.3c-0.2-0.2-0.3-0.4-0.3-0.7l0.2-28c0-0.3,0.1-0.5,0.3-0.7s0.4-0.3,0.7-0.3h2.2c0.3,0,0.5,0.1,0.7,0.3
		c0.2,0.2,0.3,0.4,0.3,0.7l0,3c0,0.2,0.1,0.4,0.3,0.5c0.2,0.1,0.4,0.1,0.5-0.1c0.5-0.7,1.2-1.3,1.8-1.9c0.7-0.6,1.4-1.1,2.1-1.6
		c0.8-0.4,1.6-0.8,2.4-1.1c0.8-0.3,1.7-0.4,2.6-0.4c0.3,0,0.5,0.1,0.7,0.2c0.2,0.2,0.3,0.4,0.3,0.7V627.9z"/>
	<path class="st1" d="M1264.3,616.7c0,0.2-0.1,0.4-0.2,0.6c-0.1,0.2-0.3,0.3-0.6,0.3h-12c-0.2,0-0.4,0.1-0.6,0.2
		c-0.2,0.1-0.2,0.3-0.2,0.6l0.3,35.4c0,0.3-0.1,0.5-0.3,0.7c-0.2,0.2-0.4,0.3-0.7,0.3h-2.6c-0.3,0-0.5-0.1-0.7-0.3
		c-0.2-0.2-0.3-0.4-0.3-0.7l0.3-35.4c0-0.2-0.1-0.4-0.2-0.6c-0.2-0.2-0.3-0.2-0.6-0.2h-11.8c-0.2,0-0.4-0.1-0.6-0.2
		c-0.1-0.2-0.2-0.4-0.2-0.6l0.1-2.5c0-0.2,0.1-0.4,0.2-0.6c0.2-0.1,0.4-0.2,0.6-0.2h29.2c0.2,0,0.4,0.1,0.6,0.2
		c0.2,0.1,0.2,0.3,0.2,0.6L1264.3,616.7z"/>
	<path class="st1" d="M1293.1,653.8c0,0.3-0.1,0.5-0.3,0.7c-0.2,0.2-0.4,0.3-0.7,0.3h-2.5c-0.2,0-0.5-0.1-0.7-0.3
		c-0.2-0.2-0.3-0.4-0.3-0.7l0.1-19.6c0-0.8-0.1-1.6-0.4-2.4s-0.7-1.4-1.2-1.9c-0.5-0.5-1.1-1-1.9-1.3c-0.7-0.3-1.5-0.5-2.4-0.5
		c-0.8,0-1.5,0.1-2.3,0.4c-0.8,0.2-1.5,0.6-2.2,1c-0.7,0.4-1.4,0.9-2,1.5c-0.6,0.6-1.2,1.2-1.6,1.8c-0.5,0.6-0.8,1.3-1.1,2
		c-0.3,0.7-0.4,1.3-0.4,2l0.1,17.1c0,0.3-0.1,0.5-0.3,0.7c-0.2,0.2-0.4,0.3-0.7,0.3h-2.5c-0.2,0-0.5-0.1-0.7-0.3
		c-0.2-0.2-0.3-0.4-0.3-0.7l0.3-39.4c0-0.3,0.1-0.5,0.3-0.7c0.2-0.2,0.4-0.3,0.7-0.3h2c0.3,0,0.5,0.1,0.7,0.3
		c0.2,0.2,0.3,0.4,0.3,0.7l0.1,14.4c0,0.2,0.1,0.4,0.3,0.5s0.4,0.1,0.6-0.1c1.2-1.5,2.7-2.7,4.4-3.6c1.7-0.9,3.6-1.3,5.8-1.3
		c1.1,0,2.2,0.2,3.2,0.6c1,0.4,1.9,1,2.7,1.7c0.8,0.7,1.4,1.6,1.9,2.7c0.5,1,0.7,2.2,0.7,3.4L1293.1,653.8z"/>
	<path class="st1" d="M1318.6,632.7c0-0.8-0.2-1.6-0.6-2.2c-0.4-0.6-0.9-1.1-1.6-1.4c-0.6-0.4-1.4-0.6-2.2-0.8
		c-0.8-0.2-1.7-0.2-2.5-0.2c-0.8,0-1.6,0.1-2.4,0.2c-0.8,0.2-1.5,0.4-2.2,0.8c-0.7,0.3-1.3,0.8-1.9,1.4c-0.6,0.6-1,1.3-1.4,2.2
		c-0.2,0.4-0.3,0.6-0.4,0.8c-0.1,0.2-0.3,0.3-0.6,0.3h-2.2c-0.4,0-0.6-0.1-0.7-0.3c-0.1-0.2-0.2-0.5-0.1-0.8
		c0.3-1.5,0.9-2.8,1.7-3.9c0.8-1.1,1.8-1.9,3-2.6c1.1-0.7,2.4-1.2,3.7-1.5c1.3-0.3,2.6-0.5,3.9-0.5c1.3,0,2.6,0.2,3.9,0.5
		c1.3,0.3,2.4,0.8,3.4,1.5c1,0.7,1.8,1.6,2.4,2.7c0.6,1.1,0.9,2.5,0.9,4.1l0.1,20.6c0,0.3-0.1,0.5-0.3,0.7c-0.2,0.2-0.4,0.3-0.7,0.3
		h-2.5c-0.2,0-0.5-0.1-0.7-0.3c-0.2-0.2-0.3-0.4-0.3-0.7l0-2.3c0-0.3-0.1-0.4-0.3-0.5s-0.4,0-0.6,0.2c-0.7,0.8-1.5,1.4-2.4,1.9
		c-0.8,0.5-1.7,0.9-2.6,1.3c-0.9,0.3-1.7,0.6-2.6,0.7s-1.6,0.2-2.4,0.2c-1.5,0-2.7-0.2-3.9-0.7s-2.1-1.1-2.9-1.9
		c-0.8-0.8-1.4-1.7-1.8-2.7c-0.4-1-0.6-2.1-0.6-3.1c0-0.9,0.1-1.8,0.4-2.7c0.3-0.9,0.7-1.7,1.2-2.4c0.5-0.7,1.1-1.3,1.9-1.8
		c0.7-0.5,1.5-0.9,2.4-1.1c1-0.2,2.1-0.5,3.3-0.7c1.2-0.2,2.4-0.5,3.5-0.7c1.2-0.2,2.2-0.5,3.3-0.8c1-0.3,1.8-0.6,2.5-1
		c0.6-0.3,1-0.7,1.3-1.1C1318.4,634,1318.6,633.4,1318.6,632.7z M1302.7,646.5c0,1.1,0.3,2,0.9,2.7c0.6,0.7,1.3,1.2,2.2,1.5
		c0.9,0.3,1.9,0.4,3,0.4c1.1,0,2.2-0.2,3.2-0.5c1.1-0.3,2-0.7,2.9-1.3c0.9-0.5,1.6-1.1,2-1.8c0.3-0.5,0.6-1.1,0.8-1.8
		c0.2-0.7,0.4-1.4,0.5-2.2c0.1-0.7,0.2-1.5,0.2-2.2c0-0.7,0.1-1.4,0.1-2c0-0.3-0.1-0.4-0.4-0.4c-0.9,0.3-1.8,0.6-2.7,0.9
		s-1.8,0.5-2.7,0.7c-0.9,0.2-1.9,0.4-2.9,0.7c-1,0.2-2.1,0.4-3.3,0.7c-1.2,0.3-2.2,0.8-2.9,1.6
		C1303,644.2,1302.7,645.2,1302.7,646.5z"/>
	<path class="st1" d="M1353.1,653.8c0,0.3-0.1,0.5-0.3,0.7c-0.2,0.2-0.4,0.3-0.7,0.3h-2.5c-0.2,0-0.5-0.1-0.7-0.3
		c-0.2-0.2-0.3-0.4-0.3-0.7l0.1-18.8c0-1.1-0.1-2-0.4-2.9c-0.3-0.8-0.7-1.6-1.2-2.2c-0.5-0.6-1.1-1-1.9-1.4
		c-0.7-0.3-1.5-0.5-2.4-0.5c-1.1,0-2.2,0.3-3.3,0.9c-1.1,0.6-2.2,1.3-3.1,2.3c-0.9,1-1.7,2.1-2.3,3.4c-0.6,1.3-0.9,2.6-0.9,4
		l0.1,15.2c0,0.3-0.1,0.5-0.3,0.7c-0.2,0.2-0.4,0.3-0.7,0.3h-2.5c-0.2,0-0.5-0.1-0.7-0.3c-0.2-0.2-0.3-0.4-0.3-0.7l0.2-28
		c0-0.3,0.1-0.5,0.3-0.7c0.2-0.2,0.4-0.3,0.7-0.3h2.1c0.3,0,0.5,0.1,0.7,0.3c0.2,0.2,0.3,0.4,0.3,0.7l0,3c0,0.2,0.1,0.4,0.3,0.5
		s0.4,0.1,0.6-0.1c1.2-1.5,2.7-2.7,4.4-3.6c1.7-0.9,3.6-1.3,5.8-1.3c1.1,0,2.2,0.2,3.2,0.6c1,0.4,1.9,1,2.7,1.7
		c0.8,0.7,1.4,1.6,1.9,2.7c0.5,1,0.7,2.2,0.7,3.4L1353.1,653.8z"/>
	<path class="st1" d="M1401.4,653.8c0,0.3-0.1,0.5-0.3,0.7c-0.2,0.2-0.4,0.3-0.7,0.3H1375c-0.3,0-0.5-0.1-0.7-0.3
		c-0.2-0.2-0.3-0.4-0.3-0.7l0.3-39.4c0-0.3,0.1-0.5,0.3-0.7c0.2-0.2,0.4-0.3,0.7-0.3h24.6c0.2,0,0.4,0.1,0.6,0.2
		c0.2,0.2,0.2,0.4,0.2,0.6l0,2.4c0,0.2-0.1,0.4-0.2,0.6c-0.1,0.2-0.3,0.3-0.6,0.3h-20.8c-0.3,0-0.5,0.1-0.6,0.3
		c-0.1,0.2-0.2,0.4-0.2,0.6l0.1,11.5c0,0.2,0.1,0.4,0.2,0.6c0.2,0.2,0.3,0.2,0.6,0.2h18.9c0.2,0,0.4,0.1,0.6,0.2
		c0.2,0.2,0.2,0.4,0.2,0.6l0,2.4c0,0.2-0.1,0.5-0.2,0.6c-0.2,0.2-0.4,0.2-0.6,0.2h-18.8c-0.3,0-0.5,0.1-0.6,0.2
		c-0.1,0.2-0.2,0.3-0.2,0.6l0.1,13.8c0,0.2,0.1,0.4,0.2,0.5c0.2,0.2,0.3,0.2,0.6,0.2h21c0.3,0,0.5,0.1,0.7,0.2
		c0.2,0.1,0.3,0.3,0.3,0.6L1401.4,653.8z"/>
	<path class="st1" d="M1430.9,624.9c0.3,0,0.6,0.1,0.7,0.4s0.2,0.5,0.1,0.8l-10.4,28.1c-0.2,0.4-0.4,0.6-0.8,0.6h-3.8
		c-0.5,0-0.8-0.2-0.9-0.6l-10-28.1c-0.1-0.3-0.1-0.6,0.1-0.8c0.2-0.2,0.4-0.4,0.7-0.4h2.2c0.2,0,0.4,0.1,0.6,0.2
		c0.2,0.1,0.3,0.3,0.3,0.4l8.4,23.2c0.1,0.3,0.3,0.4,0.5,0.4c0.2,0,0.4-0.1,0.5-0.4l8.7-23.2c0.1-0.4,0.4-0.6,0.9-0.6H1430.9z"/>
	<path class="st1" d="M1464.5,638.9c0,0.3-0.1,0.6-0.3,0.8c-0.2,0.2-0.4,0.3-0.7,0.3h-22.9c-0.4,0-0.5,0.2-0.5,0.6
		c0.1,1.5,0.4,2.9,0.9,4.2c0.5,1.3,1.2,2.4,2.1,3.3c0.9,0.9,1.9,1.7,3.1,2.2c1.2,0.5,2.6,0.8,4,0.8c1.9,0,3.5-0.4,4.9-1.3
		s2.6-2,3.5-3.4c0.2-0.3,0.5-0.5,0.8-0.5h2.7c0.4,0,0.6,0.2,0.8,0.5c0.2,0.3,0.2,0.6,0,0.9c-0.6,1.2-1.3,2.3-2.2,3.3
		s-1.8,1.8-2.9,2.5s-2.3,1.3-3.5,1.6s-2.6,0.6-4.1,0.6c-2.2,0-4.1-0.4-5.9-1.2c-1.8-0.8-3.3-1.9-4.6-3.3c-1.3-1.4-2.2-3-2.9-4.9
		c-0.7-1.9-1-4-1-6.2c0-2.3,0.4-4.3,1.1-6.2c0.7-1.9,1.7-3.5,3-4.9c1.3-1.4,2.8-2.4,4.6-3.2c1.8-0.8,3.7-1.1,5.8-1.1
		c2.1,0,4,0.4,5.7,1.2c1.7,0.8,3.2,1.9,4.4,3.2c1.2,1.4,2.2,2.9,2.9,4.7C1464,635.2,1464.4,637,1464.5,638.9z M1459.1,636.5
		c0.2,0,0.4-0.1,0.5-0.2c0.1-0.1,0.1-0.3,0-0.5c-0.3-1-0.8-2-1.4-2.9c-0.6-0.9-1.3-1.7-2.1-2.4c-0.8-0.7-1.7-1.3-2.7-1.7
		c-1-0.4-2.1-0.6-3.2-0.6c-1.2,0-2.2,0.2-3.3,0.6c-1,0.4-2,0.9-2.8,1.6c-0.8,0.7-1.5,1.5-2.2,2.4c-0.6,0.9-1.1,1.9-1.4,3
		c-0.1,0.2-0.1,0.4,0,0.5c0.1,0.1,0.3,0.2,0.5,0.2H1459.1z"/>
	<path class="st1" d="M1484.5,627.9c0,0.2-0.1,0.5-0.3,0.7c-0.2,0.2-0.4,0.3-0.7,0.3c-1.3,0-2.5,0.2-3.7,0.6
		c-1.2,0.4-2.2,0.9-3.1,1.6c-0.9,0.7-1.6,1.5-2.2,2.5c-0.5,1-0.8,2-0.8,3.2l0.1,17c0,0.3-0.1,0.5-0.3,0.7c-0.2,0.2-0.4,0.3-0.7,0.3
		h-2.5c-0.2,0-0.5-0.1-0.7-0.3c-0.2-0.2-0.3-0.4-0.3-0.7l0.2-28c0-0.3,0.1-0.5,0.3-0.7s0.4-0.3,0.7-0.3h2.2c0.3,0,0.5,0.1,0.7,0.3
		c0.2,0.2,0.3,0.4,0.3,0.7l0,3c0,0.2,0.1,0.4,0.3,0.5c0.2,0.1,0.4,0.1,0.5-0.1c0.5-0.7,1.2-1.3,1.8-1.9c0.7-0.6,1.4-1.1,2.1-1.6
		c0.8-0.4,1.6-0.8,2.4-1.1c0.8-0.3,1.7-0.4,2.6-0.4c0.3,0,0.5,0.1,0.7,0.2c0.2,0.2,0.3,0.4,0.3,0.7V627.9z"/>
	<path class="st1" d="M1536.3,642.2c0,1.8-0.3,3.5-0.9,5.1c-0.6,1.5-1.5,2.9-2.6,4c-1.1,1.1-2.4,2-4,2.6c-1.6,0.6-3.3,0.9-5.2,0.9
		h-17.8c-0.3,0-0.5-0.1-0.7-0.3c-0.2-0.2-0.3-0.4-0.3-0.7l0.3-39.4c0-0.3,0.1-0.5,0.3-0.7c0.2-0.2,0.4-0.3,0.7-0.3h17.4
		c1.7,0,3.2,0.3,4.5,0.9c1.4,0.6,2.5,1.4,3.5,2.4c1,1,1.8,2.1,2.3,3.4c0.6,1.3,0.8,2.6,0.8,4c0,0.8-0.1,1.5-0.3,2.3
		c-0.2,0.8-0.5,1.5-1,2.2c-0.4,0.7-0.9,1.4-1.5,2s-1.2,1.2-1.8,1.7c0.9,0.5,1.7,1,2.5,1.8s1.4,1.5,2,2.4c0.6,0.9,1,1.8,1.3,2.8
		C1536.1,640.3,1536.3,641.2,1536.3,642.2z M1509.2,629.9c0,0.2,0.1,0.4,0.2,0.6c0.2,0.2,0.3,0.2,0.6,0.2h13.7
		c0.9,0,1.7-0.2,2.5-0.5c0.8-0.4,1.5-0.8,2.1-1.4c0.6-0.6,1.1-1.3,1.4-2.1c0.3-0.8,0.5-1.6,0.5-2.5c0-1-0.2-1.9-0.6-2.7
		c-0.4-0.8-0.9-1.5-1.6-2.1c-0.6-0.6-1.4-1-2.2-1.3s-1.7-0.5-2.5-0.5h-13.4c-0.3,0-0.5,0.1-0.6,0.2c-0.2,0.1-0.2,0.3-0.2,0.6
		L1509.2,629.9z M1531.9,642.2c0-0.9-0.2-1.8-0.6-2.6c-0.4-0.9-0.9-1.7-1.6-2.4c-0.7-0.7-1.5-1.3-2.4-1.7c-0.9-0.4-1.9-0.7-3-0.7
		l-14.3,0c-0.3,0-0.5,0.1-0.6,0.3c-0.1,0.2-0.2,0.4-0.2,0.6l0.1,13.8c0,0.2,0.1,0.4,0.2,0.6s0.3,0.2,0.6,0.2h13.7
		c1.3,0,2.4-0.2,3.4-0.7c1-0.5,1.9-1.1,2.5-1.8c0.7-0.8,1.2-1.6,1.6-2.6C1531.7,644.2,1531.9,643.2,1531.9,642.2z"/>
	<path class="st1" d="M1571.2,638.9c0,0.3-0.1,0.6-0.3,0.8c-0.2,0.2-0.4,0.3-0.7,0.3h-22.9c-0.4,0-0.5,0.2-0.5,0.6
		c0.1,1.5,0.4,2.9,0.9,4.2c0.5,1.3,1.2,2.4,2.1,3.3c0.9,0.9,1.9,1.7,3.1,2.2c1.2,0.5,2.6,0.8,4,0.8c1.9,0,3.5-0.4,4.9-1.3
		s2.6-2,3.5-3.4c0.2-0.3,0.5-0.5,0.8-0.5h2.7c0.4,0,0.6,0.2,0.8,0.5c0.2,0.3,0.2,0.6,0,0.9c-0.6,1.2-1.3,2.3-2.2,3.3
		s-1.8,1.8-2.9,2.5s-2.3,1.3-3.5,1.6s-2.6,0.6-4.1,0.6c-2.2,0-4.1-0.4-5.9-1.2c-1.8-0.8-3.3-1.9-4.6-3.3c-1.3-1.4-2.2-3-2.9-4.9
		c-0.7-1.9-1-4-1-6.2c0-2.3,0.4-4.3,1.1-6.2c0.7-1.9,1.7-3.5,3-4.9c1.3-1.4,2.8-2.4,4.6-3.2c1.8-0.8,3.7-1.1,5.8-1.1
		c2.1,0,4,0.4,5.7,1.2c1.7,0.8,3.2,1.9,4.4,3.2c1.2,1.4,2.2,2.9,2.9,4.7C1570.7,635.2,1571.1,637,1571.2,638.9z M1565.9,636.5
		c0.2,0,0.4-0.1,0.5-0.2c0.1-0.1,0.1-0.3,0-0.5c-0.3-1-0.8-2-1.4-2.9c-0.6-0.9-1.3-1.7-2.1-2.4c-0.8-0.7-1.7-1.3-2.7-1.7
		c-1-0.4-2.1-0.6-3.2-0.6c-1.2,0-2.2,0.2-3.3,0.6c-1,0.4-2,0.9-2.8,1.6c-0.8,0.7-1.5,1.5-2.2,2.4c-0.6,0.9-1.1,1.9-1.4,3
		c-0.1,0.2-0.1,0.4,0,0.5c0.1,0.1,0.3,0.2,0.5,0.2H1565.9z"/>
	<path class="st1" d="M1589.5,627.5c0,0.5-0.2,0.7-0.7,0.7h-4c-0.2,0-0.3,0.1-0.4,0.2s-0.2,0.2-0.2,0.4l0.2,25
		c0,0.3-0.1,0.5-0.3,0.7c-0.2,0.2-0.4,0.3-0.7,0.3h-2.5c-0.2,0-0.5-0.1-0.7-0.3c-0.2-0.2-0.3-0.4-0.3-0.7l0.2-24.9
		c0-0.2-0.1-0.3-0.2-0.4s-0.2-0.2-0.4-0.2h-3.4c-0.5,0-0.8-0.3-0.8-0.8l0.1-1.9c0-0.5,0.2-0.7,0.7-0.7h3.4c0.2,0,0.3-0.1,0.4-0.2
		c0.1-0.1,0.2-0.3,0.2-0.4l0-3.9c0-1.1,0.2-2.1,0.6-2.9c0.4-0.9,0.9-1.6,1.5-2.2c0.6-0.6,1.3-1,2.1-1.3c0.8-0.3,1.6-0.5,2.5-0.5h1.4
		c0.6,0,0.8,0.3,0.8,0.8l0,1.9c0,0.5-0.3,0.8-0.9,0.8h-1.5c-0.4,0-0.7,0.1-1,0.2c-0.3,0.2-0.6,0.4-0.8,0.7c-0.2,0.3-0.4,0.6-0.6,1
		s-0.2,0.8-0.2,1.2l0.1,4.3c0,0.2,0.1,0.3,0.2,0.4c0.1,0.1,0.3,0.2,0.4,0.2h3.9c0.5,0,0.8,0.2,0.8,0.7L1589.5,627.5z"/>
	<path class="st1" d="M1608.4,655.3c-2.1,0-4.1-0.4-5.9-1.2c-1.8-0.8-3.3-1.9-4.6-3.4c-1.3-1.4-2.3-3.1-3-5c-0.7-1.9-1.1-3.9-1.1-6
		c0-2.1,0.4-4,1.1-5.9s1.7-3.5,3-4.9s2.8-2.5,4.6-3.4c1.8-0.8,3.7-1.3,5.9-1.3c2.1,0,4.1,0.4,5.8,1.3c1.8,0.8,3.3,2,4.6,3.4
		s2.3,3.1,3,4.9c0.7,1.9,1.1,3.8,1.1,5.9c0,2.1-0.4,4.1-1.1,6c-0.7,1.9-1.7,3.5-3,5c-1.3,1.4-2.8,2.5-4.6,3.4
		C1612.4,654.9,1610.5,655.3,1608.4,655.3z M1618.5,639.8c0-1.5-0.2-2.9-0.7-4.3c-0.5-1.4-1.2-2.6-2.1-3.7c-0.9-1.1-2-2-3.2-2.6
		c-1.2-0.7-2.6-1-4.1-1c-1.6,0-3,0.3-4.2,1c-1.3,0.6-2.3,1.5-3.2,2.6c-0.9,1.1-1.6,2.3-2,3.7c-0.5,1.4-0.7,2.8-0.7,4.2
		c0,1.7,0.3,3.3,0.8,4.7c0.5,1.4,1.3,2.6,2.2,3.7c0.9,1,2,1.8,3.2,2.3c1.2,0.5,2.6,0.8,4,0.8c1.4,0,2.6-0.3,3.9-0.8
		c1.2-0.5,2.3-1.3,3.2-2.3c0.9-1,1.7-2.2,2.2-3.6C1618.2,643.1,1618.5,641.5,1618.5,639.8z"/>
	<path class="st1" d="M1642.1,627.9c0,0.2-0.1,0.5-0.3,0.7c-0.2,0.2-0.4,0.3-0.7,0.3c-1.3,0-2.5,0.2-3.7,0.6
		c-1.2,0.4-2.2,0.9-3.1,1.6c-0.9,0.7-1.6,1.5-2.2,2.5c-0.5,1-0.8,2-0.8,3.2l0.1,17c0,0.3-0.1,0.5-0.3,0.7c-0.2,0.2-0.4,0.3-0.7,0.3
		h-2.5c-0.2,0-0.5-0.1-0.7-0.3c-0.2-0.2-0.3-0.4-0.3-0.7l0.2-28c0-0.3,0.1-0.5,0.3-0.7s0.4-0.3,0.7-0.3h2.2c0.3,0,0.5,0.1,0.7,0.3
		c0.2,0.2,0.3,0.4,0.3,0.7l0,3c0,0.2,0.1,0.4,0.3,0.5c0.2,0.1,0.4,0.1,0.5-0.1c0.5-0.7,1.2-1.3,1.8-1.9c0.7-0.6,1.4-1.1,2.1-1.6
		c0.8-0.4,1.6-0.8,2.4-1.1c0.8-0.3,1.7-0.4,2.6-0.4c0.3,0,0.5,0.1,0.7,0.2c0.2,0.2,0.3,0.4,0.3,0.7V627.9z"/>
	<path class="st1" d="M1674.8,638.9c0,0.3-0.1,0.6-0.3,0.8c-0.2,0.2-0.4,0.3-0.7,0.3H1651c-0.4,0-0.5,0.2-0.5,0.6
		c0.1,1.5,0.4,2.9,0.9,4.2c0.5,1.3,1.2,2.4,2.1,3.3c0.9,0.9,1.9,1.7,3.1,2.2c1.2,0.5,2.6,0.8,4,0.8c1.9,0,3.5-0.4,4.9-1.3
		s2.6-2,3.5-3.4c0.2-0.3,0.5-0.5,0.8-0.5h2.7c0.4,0,0.6,0.2,0.8,0.5c0.2,0.3,0.2,0.6,0,0.9c-0.6,1.2-1.3,2.3-2.2,3.3
		s-1.8,1.8-2.9,2.5s-2.3,1.3-3.5,1.6s-2.6,0.6-4.1,0.6c-2.2,0-4.1-0.4-5.9-1.2c-1.8-0.8-3.3-1.9-4.6-3.3c-1.3-1.4-2.2-3-2.9-4.9
		c-0.7-1.9-1-4-1-6.2c0-2.3,0.4-4.3,1.1-6.2c0.7-1.9,1.7-3.5,3-4.9c1.3-1.4,2.8-2.4,4.6-3.2c1.8-0.8,3.7-1.1,5.8-1.1
		c2.1,0,4,0.4,5.7,1.2c1.7,0.8,3.2,1.9,4.4,3.2c1.2,1.4,2.2,2.9,2.9,4.7C1674.3,635.2,1674.7,637,1674.8,638.9z M1669.4,636.5
		c0.2,0,0.4-0.1,0.5-0.2c0.1-0.1,0.1-0.3,0-0.5c-0.3-1-0.8-2-1.4-2.9c-0.6-0.9-1.3-1.7-2.1-2.4c-0.8-0.7-1.7-1.3-2.7-1.7
		c-1-0.4-2.1-0.6-3.2-0.6c-1.2,0-2.2,0.2-3.3,0.6c-1,0.4-2,0.9-2.8,1.6c-0.8,0.7-1.5,1.5-2.2,2.4c-0.6,0.9-1.1,1.9-1.4,3
		c-0.1,0.2-0.1,0.4,0,0.5c0.1,0.1,0.3,0.2,0.5,0.2H1669.4z"/>
</g>
<g>
	<path class="st1" d="M1684,667.6c-76.9-1.4-153.8-2-230.7-2.1c-82-0.1-164,0.3-246.1,1c-82.4,0.7-164.9,1.6-247.3,2.6
		c-79.3,0.9-158.5,1.9-237.8,2.7c-38.3,0.4-76.6,0.9-114.8,0.8c-43.4-0.1-86.8-0.7-130.1,1.2c-10.3,0.5-20.5,1.1-30.8,1.9
		c-0.2,0,0.1,5,0,5c42.9-3.4,86-3.4,129.1-3.2c39.6,0.1,79.1,0,118.7-0.4c78.5-0.8,157.1-1.7,235.6-2.7c82.2-1,164.5-1.9,246.7-2.7
		c82.3-0.7,164.7-1.2,247.1-1.2c77.8,0,155.5,0.4,233.3,1.6c9.1,0.1,18.1,0.3,27.2,0.5C1684,672.6,1684.1,667.6,1684,667.6
		L1684,667.6z"/>
</g>
</svg>
