<?xml version="1.0" encoding="UTF-8"?>
<svg width="28px" height="25px" viewBox="0 0 28 25" version="1.1" xmlns="http://www.w3.org/2000/svg" xmlns:xlink="http://www.w3.org/1999/xlink">
    <!-- Generator: Sketch 43.2 (39069) - http://www.bohemiancoding.com/sketch -->
    <title>calendar-full</title>
    <desc>Created with Sketch.</desc>
    <defs></defs>
    <g id="Marketing-Site" stroke="none" stroke-width="1" fill="none" fill-rule="evenodd">
        <g id="Marketing-Home" transform="translate(-944.000000, -1946.000000)" fill-rule="nonzero" fill="#FFFFFF">
            <g id="calendar-full" transform="translate(944.000000, 1946.000000)">
                <path d="M25.9,1.38888889 L22.4,1.38888889 L22.4,0.694444444 C22.4,0.311111111 22.0864,0 21.7,0 C21.3136,0 21,0.311111111 21,0.694444444 L21,1.38888889 L7,1.38888889 L7,0.694444444 C7,0.311111111 6.6864,0 6.3,0 C5.9136,0 5.6,0.311111111 5.6,0.694444444 L5.6,1.38888889 L2.1,1.38888889 C0.9422,1.38888889 0,2.32361111 0,3.47222222 L0,22.9166667 C0,24.0652778 0.9422,25 2.1,25 L25.9,25 C27.0578,25 28,24.0652778 28,22.9166667 L28,3.47222222 C28,2.32361111 27.0578,1.38888889 25.9,1.38888889 Z M2.1,2.77777778 L5.6,2.77777778 L5.6,4.86111111 C5.6,5.24444444 5.9136,5.55555556 6.3,5.55555556 C6.6864,5.55555556 7,5.24444444 7,4.86111111 L7,2.77777778 L21,2.77777778 L21,4.86111111 C21,5.24444444 21.3136,5.55555556 21.7,5.55555556 C22.0864,5.55555556 22.4,5.24444444 22.4,4.86111111 L22.4,2.77777778 L25.9,2.77777778 C26.2864,2.77777778 26.6,3.08888889 26.6,3.47222222 L26.6,6.94444444 L1.4,6.94444444 L1.4,3.47222222 C1.4,3.08888889 1.7136,2.77777778 2.1,2.77777778 Z M25.9,23.6111111 L2.1,23.6111111 C1.7136,23.6111111 1.4,23.3 1.4,22.9166667 L1.4,8.33333333 L26.6,8.33333333 L26.6,22.9166667 C26.6,23.3 26.2864,23.6111111 25.9,23.6111111 Z" id="Shape"></path>
                <path d="M10.5,12.5 L9.1,12.5 C8.7136,12.5 8.4,12.1888889 8.4,11.8055556 C8.4,11.4222222 8.7136,11.1111111 9.1,11.1111111 L10.5,11.1111111 C10.8864,11.1111111 11.2,11.4222222 11.2,11.8055556 C11.2,12.1888889 10.8864,12.5 10.5,12.5 Z" id="Shape"></path>
                <path d="M14.7,12.5 L13.3,12.5 C12.9136,12.5 12.6,12.1888889 12.6,11.8055556 C12.6,11.4222222 12.9136,11.1111111 13.3,11.1111111 L14.7,11.1111111 C15.0864,11.1111111 15.4,11.4222222 15.4,11.8055556 C15.4,12.1888889 15.0864,12.5 14.7,12.5 Z" id="Shape"></path>
                <path d="M18.9,12.5 L17.5,12.5 C17.1136,12.5 16.8,12.1888889 16.8,11.8055556 C16.8,11.4222222 17.1136,11.1111111 17.5,11.1111111 L18.9,11.1111111 C19.2864,11.1111111 19.6,11.4222222 19.6,11.8055556 C19.6,12.1888889 19.2864,12.5 18.9,12.5 Z" id="Shape"></path>
                <path d="M23.1,12.5 L21.7,12.5 C21.3136,12.5 21,12.1888889 21,11.8055556 C21,11.4222222 21.3136,11.1111111 21.7,11.1111111 L23.1,11.1111111 C23.4864,11.1111111 23.8,11.4222222 23.8,11.8055556 C23.8,12.1888889 23.4864,12.5 23.1,12.5 Z" id="Shape"></path>
                <path d="M6.3,15.2777778 L4.9,15.2777778 C4.5136,15.2777778 4.2,14.9666667 4.2,14.5833333 C4.2,14.2 4.5136,13.8888889 4.9,13.8888889 L6.3,13.8888889 C6.6864,13.8888889 7,14.2 7,14.5833333 C7,14.9666667 6.6864,15.2777778 6.3,15.2777778 Z" id="Shape"></path>
                <path d="M10.5,15.2777778 L9.1,15.2777778 C8.7136,15.2777778 8.4,14.9666667 8.4,14.5833333 C8.4,14.2 8.7136,13.8888889 9.1,13.8888889 L10.5,13.8888889 C10.8864,13.8888889 11.2,14.2 11.2,14.5833333 C11.2,14.9666667 10.8864,15.2777778 10.5,15.2777778 Z" id="Shape"></path>
                <path d="M14.7,15.2777778 L13.3,15.2777778 C12.9136,15.2777778 12.6,14.9666667 12.6,14.5833333 C12.6,14.2 12.9136,13.8888889 13.3,13.8888889 L14.7,13.8888889 C15.0864,13.8888889 15.4,14.2 15.4,14.5833333 C15.4,14.9666667 15.0864,15.2777778 14.7,15.2777778 Z" id="Shape"></path>
                <path d="M18.9,15.2777778 L17.5,15.2777778 C17.1136,15.2777778 16.8,14.9666667 16.8,14.5833333 C16.8,14.2 17.1136,13.8888889 17.5,13.8888889 L18.9,13.8888889 C19.2864,13.8888889 19.6,14.2 19.6,14.5833333 C19.6,14.9666667 19.2864,15.2777778 18.9,15.2777778 Z" id="Shape"></path>
                <path d="M23.1,15.2777778 L21.7,15.2777778 C21.3136,15.2777778 21,14.9666667 21,14.5833333 C21,14.2 21.3136,13.8888889 21.7,13.8888889 L23.1,13.8888889 C23.4864,13.8888889 23.8,14.2 23.8,14.5833333 C23.8,14.9666667 23.4864,15.2777778 23.1,15.2777778 Z" id="Shape"></path>
                <path d="M6.3,18.0555556 L4.9,18.0555556 C4.5136,18.0555556 4.2,17.7444444 4.2,17.3611111 C4.2,16.9777778 4.5136,16.6666667 4.9,16.6666667 L6.3,16.6666667 C6.6864,16.6666667 7,16.9777778 7,17.3611111 C7,17.7444444 6.6864,18.0555556 6.3,18.0555556 Z" id="Shape"></path>
                <path d="M10.5,18.0555556 L9.1,18.0555556 C8.7136,18.0555556 8.4,17.7444444 8.4,17.3611111 C8.4,16.9777778 8.7136,16.6666667 9.1,16.6666667 L10.5,16.6666667 C10.8864,16.6666667 11.2,16.9777778 11.2,17.3611111 C11.2,17.7444444 10.8864,18.0555556 10.5,18.0555556 Z" id="Shape"></path>
                <path d="M14.7,18.0555556 L13.3,18.0555556 C12.9136,18.0555556 12.6,17.7444444 12.6,17.3611111 C12.6,16.9777778 12.9136,16.6666667 13.3,16.6666667 L14.7,16.6666667 C15.0864,16.6666667 15.4,16.9777778 15.4,17.3611111 C15.4,17.7444444 15.0864,18.0555556 14.7,18.0555556 Z" id="Shape"></path>
                <path d="M18.9,18.0555556 L17.5,18.0555556 C17.1136,18.0555556 16.8,17.7444444 16.8,17.3611111 C16.8,16.9777778 17.1136,16.6666667 17.5,16.6666667 L18.9,16.6666667 C19.2864,16.6666667 19.6,16.9777778 19.6,17.3611111 C19.6,17.7444444 19.2864,18.0555556 18.9,18.0555556 Z" id="Shape"></path>
                <path d="M23.1,18.0555556 L21.7,18.0555556 C21.3136,18.0555556 21,17.7444444 21,17.3611111 C21,16.9777778 21.3136,16.6666667 21.7,16.6666667 L23.1,16.6666667 C23.4864,16.6666667 23.8,16.9777778 23.8,17.3611111 C23.8,17.7444444 23.4864,18.0555556 23.1,18.0555556 Z" id="Shape"></path>
                <path d="M6.3,20.8333333 L4.9,20.8333333 C4.5136,20.8333333 4.2,20.5222222 4.2,20.1388889 C4.2,19.7555556 4.5136,19.4444444 4.9,19.4444444 L6.3,19.4444444 C6.6864,19.4444444 7,19.7555556 7,20.1388889 C7,20.5222222 6.6864,20.8333333 6.3,20.8333333 Z" id="Shape"></path>
                <path d="M10.5,20.8333333 L9.1,20.8333333 C8.7136,20.8333333 8.4,20.5222222 8.4,20.1388889 C8.4,19.7555556 8.7136,19.4444444 9.1,19.4444444 L10.5,19.4444444 C10.8864,19.4444444 11.2,19.7555556 11.2,20.1388889 C11.2,20.5222222 10.8864,20.8333333 10.5,20.8333333 Z" id="Shape"></path>
                <path d="M14.7,20.8333333 L13.3,20.8333333 C12.9136,20.8333333 12.6,20.5222222 12.6,20.1388889 C12.6,19.7555556 12.9136,19.4444444 13.3,19.4444444 L14.7,19.4444444 C15.0864,19.4444444 15.4,19.7555556 15.4,20.1388889 C15.4,20.5222222 15.0864,20.8333333 14.7,20.8333333 Z" id="Shape"></path>
                <path d="M18.9,20.8333333 L17.5,20.8333333 C17.1136,20.8333333 16.8,20.5222222 16.8,20.1388889 C16.8,19.7555556 17.1136,19.4444444 17.5,19.4444444 L18.9,19.4444444 C19.2864,19.4444444 19.6,19.7555556 19.6,20.1388889 C19.6,20.5222222 19.2864,20.8333333 18.9,20.8333333 Z" id="Shape"></path>
                <path d="M23.1,20.8333333 L21.7,20.8333333 C21.3136,20.8333333 21,20.5222222 21,20.1388889 C21,19.7555556 21.3136,19.4444444 21.7,19.4444444 L23.1,19.4444444 C23.4864,19.4444444 23.8,19.7555556 23.8,20.1388889 C23.8,20.5222222 23.4864,20.8333333 23.1,20.8333333 Z" id="Shape"></path>
            </g>
        </g>
    </g>
</svg>