<?xml version="1.0" encoding="UTF-8"?>
<svg width="40px" height="28px" viewBox="0 0 40 28" version="1.1" xmlns="http://www.w3.org/2000/svg" xmlns:xlink="http://www.w3.org/1999/xlink">
    <!-- Generator: Sketch 43.2 (39069) - http://www.bohemiancoding.com/sketch -->
    <title>0258-camera-play</title>
    <desc>Created with Sketch.</desc>
    <defs></defs>
    <g id="Marketing-Site" stroke="none" stroke-width="1" fill="none" fill-rule="evenodd">
        <g id="Marketing-Home" transform="translate(-614.000000, -1694.000000)" fill-rule="nonzero" fill="#FFFFFF">
            <g id="0258-camera-play" transform="translate(614.000000, 1694.000000)">
                <path d="M38.262,27.2516222 L38.262,27.2516222 C37.778,27.2516222 37.292,27.0554667 36.814,26.6692222 L29.938,21.1060889 C28.834,20.2122667 28,18.4610222 28,17.0313111 L28,10.9646444 C28,9.53493333 28.832,7.78368889 29.938,6.88986667 L36.814,1.32673333 C37.292,0.940488889 37.778,0.744333333 38.262,0.744333333 C39.128,0.744333333 40,1.40357778 40,2.87373333 L40,25.1181778 C40,25.6803556 39.872,26.1535556 39.62,26.5216 C39.306,26.9826667 38.81,27.2475778 38.262,27.2475778 L38.262,27.2516222 Z M38,2.95866667 L31.186,8.46922222 C30.564,8.97073333 30,10.1618222 30,10.9646444 L30,17.0313111 C30,17.8361556 30.566,19.0252222 31.186,19.5267333 L38,25.0372889 L38,2.95664444 L38,2.95866667 Z" id="Shape"></path>
                <path d="M23,27.1444444 L3,27.1444444 C1.346,27.1444444 0,25.7834889 0,24.1111111 L0,3.88888889 C0,2.21651111 1.346,0.855555556 3,0.855555556 L23,0.855555556 C24.654,0.855555556 26,2.21651111 26,3.88888889 L26,24.1111111 C26,25.7834889 24.654,27.1444444 23,27.1444444 Z M3,2.87777778 C2.448,2.87777778 2,3.33075556 2,3.88888889 L2,24.1111111 C2,24.6692444 2.448,25.1222222 3,25.1222222 L23,25.1222222 C23.552,25.1222222 24,24.6692444 24,24.1111111 L24,3.88888889 C24,3.33075556 23.552,2.87777778 23,2.87777778 L3,2.87777778 Z" id="Shape"></path>
                <path d="M9,21.0777778 C8.83,21.0777778 8.66,21.0332889 8.508,20.9463333 C8.194,20.7663556 8,20.4306667 8,20.0666667 L8,7.93333333 C8,7.56933333 8.194,7.23364444 8.508,7.05366667 C8.822,6.87368889 9.206,6.87975556 9.516,7.0658 L19.516,13.1324667 C19.818,13.3144667 20.002,13.6440889 20.002,14 C20.002,14.3559111 19.818,14.6835111 19.516,14.8675333 L9.516,20.9342 C9.358,21.0292444 9.18,21.0777778 9.002,21.0777778 L9,21.0777778 Z M10,9.71895556 L10,18.2810444 L17.056,14 L10,9.71895556 Z" id="Shape"></path>
            </g>
        </g>
    </g>
</svg>