<?xml version="1.0" encoding="UTF-8"?>
<svg width="34px" height="34px" viewBox="0 0 34 34" version="1.1" xmlns="http://www.w3.org/2000/svg" xmlns:xlink="http://www.w3.org/1999/xlink">
    <!-- Generator: Sketch 43.2 (39069) - http://www.bohemiancoding.com/sketch -->
    <title>0288-user-plus</title>
    <desc>Created with Sketch.</desc>
    <defs></defs>
    <g id="Marketing-Site" stroke="none" stroke-width="1" fill="none" fill-rule="evenodd">
        <g id="Marketing-Home" transform="translate(-946.000000, -1157.000000)" fill="#FFFFFF">
            <g id="0288-user-plus" transform="translate(946.000000, 1157.000000)">
                <g id="Group">
                    <path d="M16.15,18.7 C10.9939,18.7 6.8,14.5061 6.8,9.35 C6.8,4.1939 10.9939,0 16.15,0 C21.3061,0 25.5,4.1939 25.5,9.35 C25.5,14.5061 21.3061,18.7 16.15,18.7 Z M16.15,1.7 C11.9323,1.7 8.5,5.1323 8.5,9.35 C8.5,13.5677 11.9323,17 16.15,17 C20.3677,17 23.8,13.5677 23.8,9.35 C23.8,5.1323 20.3677,1.7 16.15,1.7 Z" id="Shape"></path>
                    <path d="M19.55,34 L2.55,34 C1.1441,34 0,32.8559 0,31.45 C0,31.3344 0.0238,28.5855 2.0825,25.84 C3.281,24.242 4.9215,22.9721 6.9598,22.0677 C9.4486,20.961 12.5409,20.4 16.15,20.4 C16.7467,20.4 17.3366,20.4187 17.9027,20.4527 C18.3719,20.4816 18.7272,20.8862 18.6983,21.3537 C18.6694,21.8212 18.2648,22.1799 17.7973,22.1493 C17.2652,22.117 16.711,22.1 16.15,22.1 C10.2221,22.1 5.848,23.7201 3.5003,26.7852 C1.7408,29.0819 1.7017,31.4296 1.7,31.4534 C1.7,31.9192 2.0808,32.3 2.55,32.3 L19.55,32.3 C20.0192,32.3 20.4,32.6808 20.4,33.15 C20.4,33.6192 20.0192,34 19.55,34 L19.55,34 Z" id="Shape"></path>
                    <path d="M26.35,34 C22.1323,34 18.7,30.5677 18.7,26.35 C18.7,22.1323 22.1323,18.7 26.35,18.7 C30.5677,18.7 34,22.1323 34,26.35 C34,30.5677 30.5677,34 26.35,34 Z M26.35,20.4 C23.069,20.4 20.4,23.069 20.4,26.35 C20.4,29.631 23.069,32.3 26.35,32.3 C29.631,32.3 32.3,29.631 32.3,26.35 C32.3,23.069 29.631,20.4 26.35,20.4 Z" id="Shape"></path>
                    <path d="M29.75,25.5 L27.2,25.5 L27.2,22.95 C27.2,22.4808 26.8192,22.1 26.35,22.1 C25.8808,22.1 25.5,22.4808 25.5,22.95 L25.5,25.5 L22.95,25.5 C22.4808,25.5 22.1,25.8808 22.1,26.35 C22.1,26.8192 22.4808,27.2 22.95,27.2 L25.5,27.2 L25.5,29.75 C25.5,30.2192 25.8808,30.6 26.35,30.6 C26.8192,30.6 27.2,30.2192 27.2,29.75 L27.2,27.2 L29.75,27.2 C30.2192,27.2 30.6,26.8192 30.6,26.35 C30.6,25.8808 30.2192,25.5 29.75,25.5 Z" id="Shape"></path>
                </g>
            </g>
        </g>
    </g>
</svg>